<?xml version="1.0" encoding="UTF-8"?>
<!-- Generator: Adobe Illustrator 22.0.1, SVG Export Plug-In . SVG Version: 6.00 Build 0)  -->
<svg xmlns="http://www.w3.org/2000/svg" xmlns:xlink="http://www.w3.org/1999/xlink" id="Layer_1" x="0px" y="0px" viewBox="0 0 800 800" style="enable-background:new 0 0 800 800;" xml:space="preserve">
<style type="text/css">
	.st0{fill:#F47A12;}
	.st1{fill:#FFFFFF;}
	.st2{fill:#CC2131;}
	.st3{fill:#C4122E;}
	.st4{clip-path:url(#SVGID_2_);}
	.st5{fill:#15495D;}
	.st6{fill:#231F20;}
	.st7{fill:#3B73B9;}
	.st8{fill:#FFD520;}
</style>
<path class="st0" d="M72.4,210.8c13.4-4.9,27.8-3.6,41.8-3.7c197.6,0,395.2,0,592.9,0c36.1-0.3,68.1,31.6,68.3,67.6  c0.1,83.8,0.1,167.6,0,251.4c-0.7,32.5-27.2,62.4-59.6,66.1c-22.2,0.1-44.3,1.2-66.4,0.2c-185.1,0.1-370.1,0.1-555.2,0.1  c-36.6,1.8-70.5-32.4-68.5-69c0-82.9,0-165.7,0-248.6C24.7,246.4,45.7,219.7,72.4,210.8L72.4,210.8z"></path>
<path d="M84.5,231.4c4.1-0.9,8.3-1.3,12.5-1.2c203.3,0.1,406.6,0.1,609.8,0.1c23.7,0,45,20.6,45.3,44.4c0.2,83,0,166,0.1,249.1  c0.8,25.5-22.8,47.5-47.9,46.7c-202.4,0-404.8,0-607.3,0c-25.2,1.1-49.8-21.1-48.5-46.8c0.1-79.1,0.1-158.1,0-237.1  c0.2-9.4-1.1-19.3,3.4-28C57.8,244.8,69.9,234.8,84.5,231.4L84.5,231.4z"></path>
<path class="st0" d="M341.6,281.6c7.6,0,15.2,0,22.8,0c15.2,35,29.7,70.1,44.9,105.1c-8.7,0.2-17.3,0.2-26,0  c-2.7-7.7-5.8-15.4-8.9-23c-14.7-0.3-29.5-0.1-44.2-0.2c-3,7.9-6.2,15.7-9.6,23.4c-8.2-0.1-16.3-0.1-24.4-0.1  C311.4,351.8,326.7,316.8,341.6,281.6z M436.7,290.8c19.8-14,46.8-13.1,67.8-2.1c-0.3,7.3-0.3,14.6-0.2,21.9  c-15.5-9.6-37-13.1-52.7-2.1c-16.2,10.5-17.9,36.3-3.9,49.3c13.6,13.4,36.3,10.9,51.4,1.5c3.7,5.7,7.5,11.4,11.3,17  c-14.8,11.3-34.4,14-52.4,11.2c-23.7-3.5-42.7-25.3-44.1-49C412.7,319.8,421.4,301.7,436.7,290.8z M100.8,386.9  c0.2-34.9-0.1-69.8,0.1-104.8c17,0.4,33.9-0.2,50.9,0.3c12.3,0.3,26.3,6,30.4,18.7c5,11.6-1.8,23.6-10.1,31.4  c10.7,4.2,17.5,14.9,16.9,26.4c-1.3,19-14.5,26.5-28.7,27.5C140.5,387.3,120.6,386.4,100.8,386.9z M213.5,386.8  c0.1-34.8,0.1-69.7,0-104.5c7.7,0,15.5,0,23.2,0c-0.1,27.8,0,55.6-0.1,83.4c17.3,0,34.7,0,52,0c0,7,0.1,13.9,0.2,20.9  C263.8,387,238.6,386.7,213.5,386.8z M525.8,386.8c0.3-34.9,0.1-69.7,0.1-104.6c7.7,0,15.4,0.1,23.1,0.1c0,15.1-0.1,30.2,0,45.3  c13.4-14.8,26.2-30.2,39.4-45.2c10.5-0.1,20.9-0.1,31.3,0.1c-15.7,16.7-31.2,33.5-46.5,50.5c15.6,18.4,32.3,35.8,48.4,53.7  c-10.6,0.3-21.2,0.3-31.8,0c-13-15.8-26.9-31-40.8-46c-0.3,15.4-0.1,30.7,0,46.1C541.4,386.8,533.6,386.8,525.8,386.8L525.8,386.8z   M700.2,323.6h-13.4c-4.6-0.1-9.3-0.1-14,0c0.1-8.7,0.2-17.5,0.2-26.2c-7.2,0-14.4,0-21.7,0c-0.1,8.7-0.1,17.4,0.1,26.2  c-8.8,0.1-17.7,0.1-26.5,0.1c-0.1,7.1-0.2,14.2-0.2,21.3c8.9,0,17.8,0,26.7-0.1c0,9-0.1,18-0.1,27.1c7.3,0,14.5,0,21.8,0  c0-9.1-0.1-18.1-0.1-27.1l26.8,0.1c0.2-6.9,0.3-13.8,0.5-20.6h0L700.2,323.6z"></path>
<path d="M351.7,309.6c5.6,11.1,9.7,22.8,14.3,34.4c-9.4,0-18.7,0-28.1,0.1C342.5,332.5,347.8,321.4,351.7,309.6z"></path>
<path class="st0" d="M340.1,414.7c17.5-6.2,36.8-2.9,53.6,3.9c0.2,7.6,0.3,15.2,0.3,22.8c-15.6-8.9-36.3-13.2-52.2-2.5  c-16.2,9.9-19.3,34.7-6.1,48.3c13.4,15.2,37.3,12.9,53.2,2.9c3.5,5.7,7.2,11.3,11,16.8c-24.1,18.2-63.5,17.6-83.5-6.5  c-13.6-14.7-16-37.4-8.8-55.7C313.7,430.7,325.5,419.8,340.1,414.7z M100.8,517.4c0.2-34.8-0.2-69.6,0.2-104.4  c22.5,1.2,46.6-3.7,67.6,7.1c25.1,13.6,34.5,45.1,20.8,70.2c-7.8,14.4-22.1,24.3-38.3,26.6C134.3,517.9,117.5,517.1,100.8,517.4z   M213.5,517.4c0.3-34.8-0.2-69.6,0.3-104.4c25,0.3,50,0.1,75,0.1c0.1,6.8,0.1,13.6,0.2,20.4c-17.5,0.5-35-0.5-52.5,0.5  c0.1,7,0.3,14,0.6,20.9c15.3-0.5,30.6-0.3,45.9-0.2c-0.1,6.8-0.1,13.6-0.1,20.3c-15.4,0-30.9,0-46.3,0v21.9c17.6,0,35.2,0,52.7,0  c0,6.8,0,13.7-0.1,20.5C264,517.2,238.8,517.4,213.5,517.4z M415.5,517.4c0.3-34.9-0.6-69.8,0.4-104.6c7.6,0.2,15.2,0.3,22.8,0.3  c0.1,15.2-0.3,30.4,0.3,45.7c12.9-15.5,25.9-31.1,39.7-45.8c10.2,0.1,20.3,0.1,30.5,0c-15.3,17.1-31.2,33.8-46.5,51.1  c15.8,18,32.4,35.2,48,53.3c-10.4,0-20.7,0-31-0.2c-13.6-15.3-26.9-30.8-40.9-45.7c-0.3,15.2,0,30.5-0.1,45.8  C431,517.3,423.3,517.4,415.5,517.4z M525.9,517.4c0.3-34.8-0.1-69.7,0.2-104.5c25,0.3,50,0.1,75,0.1c0,6.8,0,13.7,0.1,20.5  c-17.4,0.1-34.8-0.2-52.3,0.1c-0.1,7.1,0.1,14.2,0.5,21.3c15.3-0.6,30.6-0.3,45.9-0.2c0,6.8,0,13.5,0,20.3c-15.5,0-31,0-46.4,0  c0,7.3,0.1,14.7,0.1,22c17.5-0.1,35,0.1,52.4-0.3c0.2,6.9,0.3,13.8,0.3,20.7C576.5,517.3,551.2,517.3,525.9,517.4L525.9,517.4z   M682.4,480.8c5.3-1.6,10.3-4.2,14.7-7.5c17.3-14.4,14.3-47.5-7.6-55.8c-3.3-1.3-6.7-2.3-10.1-3c-0.3-0.1-0.6-0.2-1-0.2l-0.2,0  c-7.5-1.3-15.1-1.8-22.7-1.5c-15.1-0.3-30.8,0.2-30.8,0.2c-0.1,34.8-0.1,69.6,0,104.4c7.7-0.1,15.4-0.1,23.1-0.1  c0.1-12,0-23.9,0.1-35.9c1.9,0.3,5.6,0.9,7.5,1.2c10.6,10,17.6,23.2,27.4,33.9c9.6,1.9,19.7,0.3,29.4,0.8  C702.4,505.1,692.4,492.9,682.4,480.8L682.4,480.8z"></path>
<path d="M123.7,434.3c10.7,0.4,22.5-1.9,32.2,3.8c19.1,9.8,20.4,40.3,3.4,52.8c-10,8.2-23.8,5.3-35.7,5.8  C123.8,475.9,123.8,455.1,123.7,434.3z M647.8,434.3c10.1,0.7,21-1.9,30.5,2.4c9.1,4.4,8.4,18.8-0.5,23c-9.5,4.1-20.2,1.9-30.2,2.1  C647.8,452.6,647.8,443.5,647.8,434.3z M123.4,302.5c0,0,39.1-4.3,37,11.1c0,0,2.3,11.1-16.2,11l-20.7,0.2L123.4,302.5z   M123.4,343.6c0,0,44.7-3.6,43.2,10.6c0,0,1.8,12.8-15,12l-28.3,0.1L123.4,343.6z"></path>
</svg>
