<?xml version="1.0" encoding="UTF-8"?>
<!-- Generator: Adobe Illustrator 21.1.0, SVG Export Plug-In . SVG Version: 6.00 Build 0)  -->
<svg xmlns="http://www.w3.org/2000/svg" xmlns:xlink="http://www.w3.org/1999/xlink" id="Layer_1" x="0px" y="0px" viewBox="0 0 132 61.8" style="enable-background:new 0 0 132 61.8;" xml:space="preserve">
<style type="text/css">
	.st0{fill:#30594F;}
	.st1{fill:#FFFFFF;}
	.st2{fill:#FFFFFE;}
	.st3{fill:none;}
	.st4{fill:#231F20;}
</style>
<g id="Layer_2">
	<rect x="15.2" y="8.1" class="st0" width="101.5" height="46.5"></rect>
	<g>
		<path class="st1" d="M114.8,52.6H17.1V9.9h97.8V52.6z M17.4,52.4h97.1V10.2H17.4V52.4z"></path>
	</g>
</g>
<g id="Layer_3">
	<g>
		<path class="st1" d="M26.8,36.5h2.8V18.1h-2.8V36.5z M37,37.5l-4.4,4.2H20.9V12.3h11.5l4.5,4.3L37,37.5L37,37.5z"></path>
		<rect x="39.2" y="12.3" class="st1" width="6.7" height="29.5"></rect>
		<polygon class="st1" points="64.1,23.6 57.6,23.6 57.6,17.8 54.7,17.8 54.7,36.2 57.6,36.2 57.6,29.2 64.1,29.2 64.1,37.5     59.7,41.7 52.8,41.7 48.1,37.5 48.1,16.5 52.4,12.3 59.7,12.3 64.1,16.5   "></polygon>
		<polygon class="st1" points="72.8,24.8 72.9,24.8 77.3,12.3 84.2,12.3 78.4,26.1 85.1,41.7 77.8,41.7 72.9,29.2 72.8,29.2     72.8,41.7 66.2,41.7 66.2,12.3 72.8,12.3   "></polygon>
		<polygon class="st1" points="106.8,12.3 111.5,16.5 111.5,21.7 104.8,21.7 104.8,17.8 102.1,17.8 102.1,23.8 106.9,24.2     111.5,28.5 111.5,37.5 107.1,41.7 99.7,41.7 95.4,37.5 95.4,32.3 102.1,32.3 102.1,36.2 104.8,36.2 104.8,30.1 100.1,29.7     95.4,25.4 95.4,16.5 99.8,12.3   "></polygon>
	</g>
	<g>
		<polygon class="st1" points="26.2,44.7 27.9,45.5 27.9,46.5 25.5,46.5 25.5,45.7 24.5,45.7 24.5,47 26.2,47.1 27.9,47.9     27.9,49.7 26.3,50.5 23.6,50.5 22,49.7 22,48.7 24.5,48.7 24.5,49.4 25.5,49.4 25.5,48.2 23.7,48.1 22,47.3 22,45.5 23.6,44.7       "></polygon>
		<path class="st1" d="M34.7,45.5l-1.6-0.8h-4v5.9h2.5v-2h1.6l1.6-0.8L34.7,45.5L34.7,45.5z M32.4,47.4h-0.9v-1.7h0.9V47.4z"></path>
		<path class="st1" d="M41.3,45.5l-1.7-0.8H37l-1.6,0.8v4.2l1.6,0.8h2.7l1.5-0.8L41.3,45.5L41.3,45.5z M38.8,49.4h-1v-3.7h1V49.4z"></path>
		<path class="st1" d="M48.4,45.5l-1.6-0.8h-4.2v5.9h2.5v-2.4H46v2.4h2.4v-2.4l-1.2-0.6l1.2-0.5V45.5z M46,47.1h-1v-1.3h1V47.1z"></path>
		<polygon class="st1" points="54.2,45.7 52.8,45.7 52.8,50.5 50.4,50.5 50.4,45.7 49,45.7 49,44.7 54.2,44.7   "></polygon>
		<rect x="55" y="44.7" class="st1" width="2.5" height="5.9"></rect>
		<polygon class="st1" points="64.6,50.5 62.6,50.5 61,47.7 61,47.7 61,50.5 58.7,50.5 58.7,44.7 60.8,44.7 62.3,47.5 62.3,47.5     62.3,44.7 64.6,44.7   "></polygon>
		<polygon class="st1" points="71.6,46.9 69.2,46.9 69.2,45.7 68,45.7 68,49.4 69.2,49.4 69.2,48.6 68.5,48.6 68.5,47.4 71.6,47.4     71.6,49.7 70,50.5 67.3,50.5 65.6,49.7 65.6,45.5 67.2,44.7 69.9,44.7 71.6,45.5   "></polygon>
		<polygon class="st1" points="82.5,46.9 80.1,46.9 80.1,45.7 78.9,45.7 78.9,49.4 80.1,49.4 80.1,48.6 79.5,48.6 79.5,47.4     82.5,47.4 82.5,49.7 80.9,50.5 78.2,50.5 76.5,49.7 76.5,45.5 78.2,44.7 80.8,44.7 82.5,45.5   "></polygon>
		<path class="st1" d="M89.4,45.5l-1.7-0.8h-2.6l-1.6,0.8v4.2l1.6,0.8h2.7l1.5-0.8L89.4,45.5L89.4,45.5z M86.9,49.4h-1v-3.7h1V49.4z    "></path>
		<path class="st1" d="M96.5,45.5l-1.7-0.8h-2.6l-1.6,0.8v4.2l1.6,0.8h2.7l1.5-0.8L96.5,45.5L96.5,45.5z M94,49.4h-1v-3.7h1V49.4z"></path>
		<path class="st1" d="M103.5,45.5l-1.7-0.8h-4.2v5.9h4.3l1.5-0.8L103.5,45.5L103.5,45.5z M101.1,49.4h-1v-3.7h1V49.4z"></path>
		<polygon class="st1" points="108.8,44.7 110.5,45.5 110.5,46.5 108,46.5 108,45.7 107,45.7 107,47 108.8,47.1 110.5,47.9     110.5,49.7 108.8,50.5 106.1,50.5 104.6,49.7 104.6,48.7 107,48.7 107,49.4 108,49.4 108,48.2 106.3,48.1 104.6,47.3 104.6,45.5     106.1,44.7   "></polygon>
		<path class="st1" d="M111.7,49.7v-0.2h0.2c0.1,0,0.2,0,0.2,0.2s-0.1,0.2-0.2,0.2L111.7,49.7 M111.7,49.8h0.2l0.2,0.4h0.2l-0.2-0.4    c0.2,0,0.2-0.1,0.2-0.2s-0.1-0.2-0.3-0.2h-0.4v0.8h0.2C111.7,50.2,111.7,49.8,111.7,49.8z M111.8,50.6c0.5,0,0.8-0.3,0.8-0.8    c0-0.5-0.4-0.8-0.8-0.8s-0.8,0.3-0.8,0.8C111.1,50.2,111.4,50.6,111.8,50.6 M111.2,49.7c0-0.4,0.3-0.7,0.7-0.7    c0.4,0,0.6,0.3,0.6,0.7s-0.3,0.7-0.6,0.7C111.5,50.4,111.2,50.1,111.2,49.7"></path>
	</g>
</g>
<g id="Layer_4">
	<g>
		<path class="st2" d="M87.4,27.3L87.2,27c1.9-0.8,3.2-2.5,3.2-3.5h0.3C90.8,24.6,89.4,26.6,87.4,27.3z M87.8,26.2l-0.2-0.3    c2.1-1.4,2.2-2.3,2.2-3.2h0.3C90.2,23.8,89.8,24.9,87.8,26.2z M88.2,25.2L87.9,25c1.5-1.3,1.5-2.2,1.2-2.8l0.3-0.2    C89.9,23.1,89.5,24.1,88.2,25.2z"></path>
	</g>
</g>
<g id="Layer_1_1_">
	<g>
		<g>
			<path class="st0" d="M91,20.6c-1.3-0.4-2.6,0.3-3.1,1.6c-0.4,1.3,0.3,2.6,1.6,3.1c1.3,0.4,2.6-0.3,3.1-1.6     C93.1,22.4,92.3,21,91,20.6"></path>
		</g>
		<g>
			<path class="st0" d="M90.3,25.4L90.3,25.4c-0.2,0-0.5,0-0.8-0.1c-0.6-0.2-1.2-0.6-1.5-1.2c-0.3-0.6-0.4-1.2-0.2-1.9     c0.3-1.1,1.3-1.8,2.4-1.8c0.2,0,0.5,0,0.8,0.1c0.6,0.2,1.2,0.6,1.5,1.2c0.3,0.6,0.4,1.2,0.2,1.9C92.4,24.7,91.4,25.4,90.3,25.4z      M90.3,20.5c-1.1,0-2,0.7-2.3,1.7c-0.2,0.6-0.2,1.2,0.2,1.8c0.3,0.5,0.8,1,1.4,1.2c0.2,0.1,0.5,0.1,0.7,0.1c1.1,0,2-0.7,2.3-1.7     c0.2-0.6,0.2-1.2-0.2-1.8c-0.3-0.5-0.8-1-1.4-1.2C90.8,20.6,90.5,20.5,90.3,20.5z"></path>
		</g>
		<g>
			<path class="st1" d="M92.8,23.1C92.7,23.1,92.7,23.1,92.8,23.1c-0.1,0.2-0.2,0.2-0.1,0.3l0,0C92.7,23.2,92.8,23.1,92.8,23.1     c0,0.2-0.1,0.4-0.1,0.5c0,0,0-0.1,0,0c-0.1,0-0.1,0.1-0.1,0.2c0,0.1-0.1,0.1-0.1,0.1l0,0c0,0,0.1-0.1,0.1,0l0,0v-0.1     c0.1-0.1,0.1-0.2,0.2-0.2c0,0.2-0.1,0.2-0.1,0.3h-0.1c-0.1,0-0.2,0.2-0.2,0.2c0,0.1,0,0.1,0,0c0.1-0.1,0.2-0.2,0.2-0.2     c0,0.1-0.1,0.2-0.2,0.3c0,0-0.1,0-0.1-0.1c-0.1,0-0.2,0.1-0.2,0.1c-0.1,0.1-0.2,0.3-0.3,0.2c0,0,0,0-0.1,0c0-0.2,0.2-0.2,0.3-0.2     c0,0,0,0,0-0.1c0-0.1-0.2,0-0.3,0.2c-0.1-0.1-0.2,0-0.3,0.1s-0.2,0.2-0.4,0h-0.1c-0.1,0.2-0.2,0.2-0.4,0.1c0,0-0.1,0-0.2,0     c-0.1,0.1-0.3,0.2-0.4-0.1c-0.1,0-0.2-0.1-0.2-0.1c-0.1,0.1-0.2,0.1-0.3,0c-0.1,0-0.1-0.1-0.1-0.2l0,0c-0.1-0.2-0.2-0.3-0.4-0.2     c-0.1,0-0.2-0.1-0.2-0.2c0-0.2-0.1-0.2-0.2-0.3c-0.1,0-0.1,0-0.2,0c0,0,0,0-0.1-0.1c0-0.1-0.2-0.1-0.2-0.2c0-0.2-0.1-0.4-0.2-0.3     c0,0.1-0.2,0-0.1-0.2c-0.1-0.1,0-0.2-0.1-0.4c0-0.1,0.1-0.3,0.1-0.5c0,0.1,0,0.2,0,0.2l0,0c0-0.1,0.1-0.2,0-0.3l0,0     c0.2-0.5,1.2-1.8,2.9-1.4C92.2,20.9,92.8,22.1,92.8,23.1"></path>
		</g>
		<g>
			<path class="st3" d="M92.8,23.1C92.7,23.1,92.7,23.1,92.8,23.1c-0.1,0.2-0.2,0.2-0.1,0.3l0,0C92.7,23.2,92.8,23.1,92.8,23.1     c0,0.2-0.1,0.4-0.1,0.5c0,0,0-0.1,0,0c-0.1,0-0.1,0.1-0.1,0.2c0,0.1-0.1,0.1-0.1,0.1l0,0c0,0,0.1-0.1,0.1,0l0,0v-0.1     c0.1-0.1,0.1-0.2,0.2-0.2c0,0.2-0.1,0.2-0.1,0.3h-0.1c-0.1,0-0.2,0.2-0.2,0.2c0,0.1,0,0.1,0,0c0.1-0.1,0.2-0.2,0.2-0.2     c0,0.1-0.1,0.2-0.2,0.3c0,0-0.1,0-0.1-0.1c-0.1,0-0.2,0.1-0.2,0.1c-0.1,0.1-0.2,0.3-0.3,0.2c0,0,0,0-0.1,0c0-0.2,0.2-0.2,0.3-0.2     c0,0,0,0,0-0.1c0-0.1-0.2,0-0.3,0.2c-0.1-0.1-0.2,0-0.3,0.1s-0.2,0.2-0.4,0h-0.1c-0.1,0.2-0.2,0.2-0.4,0.1c0,0-0.1,0-0.2,0     c-0.1,0.1-0.3,0.2-0.4-0.1c-0.1,0-0.2-0.1-0.2-0.1c-0.1,0.1-0.2,0.1-0.3,0c-0.1,0-0.1-0.1-0.1-0.2l0,0c-0.1-0.2-0.2-0.3-0.4-0.2     c-0.1,0-0.2-0.1-0.2-0.2c0-0.2-0.1-0.2-0.2-0.3c-0.1,0-0.1,0-0.2,0c0,0,0,0-0.1-0.1c0-0.1-0.2-0.1-0.2-0.2c0-0.2-0.1-0.4-0.2-0.3     c0,0.1-0.2,0-0.1-0.2c-0.1-0.1,0-0.2-0.1-0.4c0-0.1,0.1-0.3,0.1-0.5c0,0.1,0,0.2,0,0.2l0,0c0-0.1,0.1-0.2,0-0.3l0,0     c0.2-0.5,1.2-1.8,2.9-1.4C92.2,20.9,92.8,22.1,92.8,23.1z"></path>
		</g>
		<g>
			<path class="st4" d="M88.1,22.4c0.1,0,0.1,0.2,0.1,0.2l0,0v-0.1C88.2,22.4,88.1,22.4,88.1,22.4L88.1,22.4"></path>
		</g>
		<g>
			<path class="st0" d="M90.3,20.6c0.1,0,0.2,0,0.2,0c0,0.1-0.2,0.1-0.3,0C90.2,20.6,90.2,20.6,90.3,20.6"></path>
		</g>
		<g>
			<path class="st0" d="M89.8,20.6c0.1,0,0.2-0.1,0.2-0.1c-0.1,0.1-0.2,0.2-0.3,0.1C89.7,20.7,89.8,20.7,89.8,20.6"></path>
		</g>
		<g>
			<path class="st0" d="M89.5,20.7c0,0.1-0.2,0.1-0.2,0.1C89.5,20.7,89.5,20.7,89.5,20.7C89.6,20.7,89.5,20.7,89.5,20.7"></path>
		</g>
		<g>
			<path class="st0" d="M89.2,20.8c0,0.1-0.2,0.2-0.2,0.1C89.2,20.9,89.2,20.8,89.2,20.8L89.2,20.8"></path>
		</g>
		<g>
			<path class="st0" d="M88.8,21.1c0,0,0.1-0.1,0.2-0.2C89,21,88.8,21.1,88.8,21.1"></path>
		</g>
		<g>
			<path class="st0" d="M88.5,21.4c0.1,0,0.2-0.2,0.2-0.2C88.7,21.2,88.6,21.4,88.5,21.4"></path>
		</g>
		<g>
			<path class="st0" d="M92.6,22.5c0,0.1,0.1,0.2,0,0.2C92.5,22.7,92.5,22.5,92.6,22.5C92.7,22.4,92.6,22.5,92.6,22.5"></path>
		</g>
		<g>
			<path class="st0" d="M92.5,23.1C92.5,23.1,92.5,23.1,92.5,23.1s0-0.2,0.1-0.2C92.7,23,92.6,23.1,92.5,23.1"></path>
		</g>
		<g>
			<path class="st0" d="M88.4,21.7c0,0.1-0.1,0.2-0.2,0.2C88.3,21.8,88.3,21.7,88.4,21.7C88.4,21.6,88.4,21.6,88.4,21.7"></path>
		</g>
		<g>
			<path class="st0" d="M92.5,23.6c0,0,0-0.3,0.2-0.3C92.6,23.4,92.5,23.4,92.5,23.6"></path>
		</g>
		<g>
			<path class="st0" d="M92.4,23.8c0,0.1-0.1,0-0.2,0.1L92.2,24C92.2,23.9,92.3,23.7,92.4,23.8"></path>
		</g>
		<g>
			<path class="st1" d="M87.9,22.7L87.9,22.7c0-0.1,0-0.2,0-0.2C88,22.6,88,22.7,87.9,22.7"></path>
		</g>
		<g>
			<path class="st0" d="M88.2,23c0-0.1,0-0.2-0.2-0.2C88.1,22.6,88.3,22.8,88.2,23"></path>
		</g>
		<g>
			<path class="st1" d="M88,23.1L88,23.1c-0.1,0-0.1-0.1-0.1-0.2C87.9,23,88,23,88,23.1"></path>
		</g>
		<g>
			<path class="st1" d="M91.5,24.7L91.5,24.7c-0.1,0-0.2,0-0.2-0.1l0,0c0.1,0,0.2,0,0.2-0.1h0.1C91.7,24.6,91.6,24.6,91.5,24.7"></path>
		</g>
		<g>
			<path class="st0" d="M89.2,21c0,0.1-0.2,0.2-0.2,0.2C89.2,21.1,89.2,21,89.2,21C89.2,20.9,89.2,20.9,89.2,21"></path>
		</g>
		<g>
			<path class="st0" d="M88.8,21.1c0,0.1-0.1,0.2-0.2,0.2C88.7,21.3,88.8,21.2,88.8,21.1L88.8,21.1"></path>
		</g>
		<g>
			<path class="st0" d="M88.5,21.7c0.2-0.1,0.1-0.2,0.1-0.2C88.6,21.4,88.6,21.7,88.5,21.7"></path>
		</g>
		<g>
			<path class="st0" d="M92.5,23.1c-0.1,0-0.2,0.2-0.2,0.2C92.3,23.3,92.3,23.1,92.5,23.1C92.5,23.1,92.5,23.1,92.5,23.1"></path>
		</g>
		<g>
			<path class="st0" d="M88.3,22c0,0.1,0,0.2-0.1,0.2C88.3,22.1,88.2,22,88.3,22C88.2,21.9,88.3,21.9,88.3,22"></path>
		</g>
		<g>
			<path class="st0" d="M92.4,23.5c0,0.1-0.2,0.1-0.2,0.2c0,0,0,0.1-0.1,0.1C92.2,23.6,92.3,23.4,92.4,23.5"></path>
		</g>
		<g>
			<path class="st0" d="M88.3,22.3c0.1,0.1,0,0.2,0,0.3C88.3,22.5,88.4,22.4,88.3,22.3C88.2,22.3,88.3,22.2,88.3,22.3"></path>
		</g>
		<g>
			<path class="st0" d="M92.2,23.7C92.2,23.8,92.1,23.7,92.2,23.7c-0.2,0-0.2,0.2-0.2,0.2C91.9,23.8,92.1,23.6,92.2,23.7"></path>
		</g>
		<g>
			<path class="st0" d="M88.5,23c-0.1,0,0-0.2-0.2-0.2C88.3,22.6,88.5,22.7,88.5,23"></path>
		</g>
		<g>
			<path class="st0" d="M91.8,24C91.8,24.1,91.8,24,91.8,24c-0.2,0.1-0.2,0.2-0.3,0.2C91.5,24.1,91.8,23.8,91.8,24"></path>
		</g>
		<g>
			<path class="st0" d="M88.6,23.4C88.6,23.4,88.6,23.4,88.6,23.4c-0.1-0.1-0.2-0.2-0.2-0.2c0,0,0,0,0-0.1     C88.5,23,88.7,23.3,88.6,23.4"></path>
		</g>
		<g>
			<path class="st0" d="M91.4,24.3c-0.1,0-0.2-0.1-0.2,0.1C91.2,24.2,91.4,24.2,91.4,24.3C91.5,24.2,91.5,24.2,91.4,24.3"></path>
		</g>
		<g>
			<path class="st0" d="M89.2,23.9C89.2,23.9,89.2,24,89.2,23.9c-0.1,0-0.2-0.2-0.3-0.2C89,23.5,89.2,23.7,89.2,23.9"></path>
		</g>
		<g>
			<path class="st0" d="M90.9,24.3C90.9,24.3,90.9,24.4,90.9,24.3c-0.2,0-0.3,0-0.4,0.1C90.7,24.1,90.9,24.2,90.9,24.3"></path>
		</g>
		<g>
			<path class="st0" d="M90.5,24.4C90.5,24.4,90.5,24.4,90.5,24.4c-0.2,0-0.3-0.1-0.4,0l0,0C90.2,24.2,90.5,24.1,90.5,24.4"></path>
		</g>
		<g>
			<path class="st0" d="M89.9,24.3c0,0.1-0.1,0-0.2,0c0,0-0.2-0.1-0.3-0.1l0,0C89.6,23.9,89.9,24.2,89.9,24.3"></path>
		</g>
		<g>
			<path class="st1" d="M89.4,24.3c-0.1,0-0.2,0.1-0.2,0c-0.1,0-0.1-0.1-0.1-0.2C89.2,24.2,89.3,24.2,89.4,24.3"></path>
		</g>
		<g>
			<path class="st1" d="M89.1,25c-0.1,0-0.2-0.1-0.2-0.2C88.9,24.9,89,24.9,89.1,25"></path>
		</g>
		<g>
			<path class="st0" d="M88.1,22.4c0.1,0,0.1,0.2,0.1,0.2l0,0v-0.1C88.2,22.4,88.1,22.4,88.1,22.4L88.1,22.4"></path>
		</g>
		<g>
			<path class="st1" d="M92.2,24.3c0,0.1-0.2,0.2-0.2,0.1c-0.1,0.1-0.1,0.2,0,0.2C92.2,24.4,92.2,24.4,92.2,24.3"></path>
		</g>
		<g>
			<path class="st1" d="M92.2,24.5c0-0.1,0.1-0.2,0.2-0.2C92.2,24.4,92.2,24.5,92.2,24.5"></path>
		</g>
		<g>
			<path class="st1" d="M92,24.5c-0.1,0-0.2,0.2-0.2,0.2c0.1,0,0.1-0.1,0.1-0.1C91.9,24.6,92,24.6,92,24.5     C92.1,24.6,92.1,24.5,92,24.5"></path>
		</g>
		<g>
			<path class="st1" d="M91.6,24.7c0.1,0.1,0.2,0,0.2-0.2C91.8,24.6,91.7,24.7,91.6,24.7C91.6,24.7,91.6,24.7,91.6,24.7"></path>
		</g>
		<g>
			<path class="st1" d="M91.7,24.8c-0.1,0-0.2,0.1-0.2,0.2C91.5,25,91.6,24.9,91.7,24.8C91.7,24.9,91.8,24.8,91.7,24.8"></path>
		</g>
		<g>
			<path class="st1" d="M91.1,25.2c0-0.2,0.3-0.2,0.4-0.2C91.3,25.1,91.2,25.1,91.1,25.2"></path>
		</g>
		<g>
			<path class="st1" d="M91.1,24.8c0.1,0.2,0.3,0,0.3-0.1C91.3,24.7,91.2,24.9,91.1,24.8"></path>
		</g>
		<g>
			<path class="st1" d="M90.8,24.6c0,0.2,0.3,0.2,0.4,0C91.2,24.7,90.8,24.7,90.8,24.6"></path>
		</g>
		<g>
			<path class="st1" d="M90.7,24.9C90.6,25,90.6,25,90.7,24.9c-0.1,0.1,0.2,0.1,0.2,0C90.9,25,90.7,25,90.7,24.9"></path>
		</g>
		<g>
			<path class="st1" d="M90.6,25.3c0.1-0.2,0.4-0.2,0.5-0.1C90.9,25.2,90.7,25.2,90.6,25.3"></path>
		</g>
		<g>
			<path class="st1" d="M90.1,25.3c0.1-0.1,0.4-0.1,0.5,0C90.4,25.2,90.2,25.3,90.1,25.3"></path>
		</g>
		<g>
			<path class="st1" d="M90.5,24.7C90.4,24.7,90.3,24.7,90.5,24.7c0,0.1,0.2,0.2,0.2,0C90.7,24.7,90.5,24.7,90.5,24.7"></path>
		</g>
		<g>
			<path class="st1" d="M90.4,25c0,0.1-0.1,0.2-0.2,0.1C90.2,25.1,90.4,25.1,90.4,25"></path>
		</g>
		<g>
			<path class="st1" d="M89.9,24.9c0.2,0.2,0.3,0.2,0.3,0C90.2,24.9,90.1,25,89.9,24.9"></path>
		</g>
		<g>
			<path class="st1" d="M89.7,24.5c0.1,0.3,0.4,0.2,0.4,0.1C90.1,24.7,89.8,24.7,89.7,24.5"></path>
		</g>
		<g>
			<path class="st1" d="M89.8,24.8c0,0.2-0.3,0.1-0.2-0.1C89.5,24.8,89.7,25,89.8,24.8"></path>
		</g>
		<g>
			<path class="st1" d="M89.2,24.4c0.1,0.3,0.3,0.3,0.4,0.2C89.6,24.6,89.4,24.7,89.2,24.4"></path>
		</g>
		<g>
			<path class="st1" d="M90,25.1c0,0.2-0.2,0.2-0.2,0C89.8,25.1,89.9,25.1,90,25.1"></path>
		</g>
		<g>
			<path class="st1" d="M89.5,24.8c0.1,0.2-0.3,0.1-0.2-0.1C89.2,24.8,89.5,25,89.5,24.8"></path>
		</g>
		<g>
			<path class="st1" d="M89.2,24.5c0,0.2-0.3,0.1-0.2-0.1C89,24.6,89.2,24.7,89.2,24.5"></path>
		</g>
		<g>
			<path class="st0" d="M90.8,20.6c0.1,0,0.2,0,0.2,0c-0.1,0.1-0.3,0-0.4-0.1C90.6,20.6,90.6,20.6,90.8,20.6"></path>
		</g>
		<g>
			<path class="st0" d="M91.2,20.7c0.1,0,0.2,0.1,0.2,0.1c-0.1,0.1-0.3-0.1-0.4-0.2C91.1,20.7,91.1,20.7,91.2,20.7"></path>
		</g>
		<g>
			<path class="st0" d="M91.7,21.1c0.1,0.1,0.2,0.1,0.2,0.1c-0.1,0-0.3-0.2-0.3-0.2C91.5,20.9,91.6,21,91.7,21.1"></path>
		</g>
		<g>
			<path class="st0" d="M92.1,21.4c0.1,0.1,0.2,0.1,0.2,0.2c-0.1,0-0.2-0.2-0.2-0.3C92,21.2,92,21.3,92.1,21.4"></path>
		</g>
		<g>
			<path class="st0" d="M92.4,21.8c0.1,0.1,0.1,0.2,0.1,0.2c-0.1,0-0.2-0.2-0.2-0.3C92.3,21.7,92.3,21.7,92.4,21.8"></path>
		</g>
		<g>
			<path class="st0" d="M92.5,22.2c0,0.1,0.1,0.2,0.1,0.2c-0.1,0-0.2-0.2-0.1-0.3C92.5,22.1,92.5,22.1,92.5,22.2"></path>
		</g>
		<g>
			<path class="st1" d="M88.7,24.7c-0.1-0.1-0.2-0.1-0.2-0.2C88.6,24.6,88.7,24.7,88.7,24.7"></path>
		</g>
		<g>
			<path class="st1" d="M88.5,24.4L88.5,24.4l-0.2-0.2C88.4,24.3,88.5,24.4,88.5,24.4"></path>
		</g>
		<g>
			<path class="st1" d="M88.5,24.4c0-0.1,0-0.2-0.1-0.2C88.5,24.1,88.5,24.3,88.5,24.4"></path>
		</g>
		<g>
			<path class="st1" d="M88.7,24.4c0.1,0.2,0.2,0.2,0.2,0.1C88.8,24.5,88.8,24.5,88.7,24.4"></path>
		</g>
		<g>
			<path class="st1" d="M88.7,24.5c0.1,0.1,0.1,0.2,0.1,0.2C88.8,24.7,88.7,24.4,88.7,24.5"></path>
		</g>
		<g>
			<path class="st1" d="M88.5,24c0,0.2,0.2,0.2,0.2,0.2C88.6,24.1,88.5,24.1,88.5,24"></path>
		</g>
		<g>
			<path class="st1" d="M88.8,24.1c-0.1,0.1,0.2,0.3,0.2,0.2C88.9,24.4,88.8,24.3,88.8,24.1"></path>
		</g>
		<g>
			<path class="st1" d="M88.8,23.9c-0.1,0.1-0.2,0-0.2-0.2C88.6,23.8,88.7,23.9,88.8,23.9"></path>
		</g>
		<g>
			<path class="st1" d="M88.3,24.2c0-0.1-0.1-0.3-0.2-0.3C88.2,23.9,88.2,24.1,88.3,24.2"></path>
		</g>
		<g>
			<path class="st1" d="M88.3,24c0.1-0.1,0-0.2,0-0.2C88.3,23.8,88.3,24,88.3,24"></path>
		</g>
		<g>
			<path class="st1" d="M88.3,23.6c-0.1,0.2,0.2,0.3,0.2,0.2C88.4,23.8,88.3,23.7,88.3,23.6"></path>
		</g>
		<g>
			<path class="st1" d="M88,23.5c0,0.1,0.1,0.2,0.1,0.3C88.1,23.7,88.2,23.6,88,23.5"></path>
		</g>
		<g>
			<path class="st1" d="M88.2,23.2c0,0.2,0.2,0.4,0.2,0.2C88.2,23.4,88.2,23.3,88.2,23.2"></path>
		</g>
		<g>
			<path class="st1" d="M88.1,23.4c0,0.2-0.2,0-0.1-0.2C88,23.3,88,23.3,88.1,23.4C88.1,23.4,88.1,23.4,88.1,23.4"></path>
		</g>
		<g>
			<path class="st0" d="M90.3,25.4c-0.5,0-1-0.2-1.4-0.4c-0.5-0.4-0.9-0.9-1.1-1.6c-0.2-0.7,0-1.3,0.4-1.8c0.5-0.7,1.2-1.2,2.1-1.2     c0.5,0,1,0.2,1.4,0.4c1.2,0.8,1.5,2.3,0.7,3.5C91.9,25,91.2,25.4,90.3,25.4z M90.3,20.5c-0.8,0-1.5,0.4-2,1.1     c-0.4,0.5-0.5,1.2-0.4,1.8c0.2,0.6,0.5,1.2,1,1.5c0.4,0.2,0.8,0.4,1.3,0.4c0.8,0,1.5-0.4,2-1.1c0.8-1.1,0.5-2.6-0.6-3.3     C91.2,20.7,90.8,20.5,90.3,20.5z"></path>
		</g>
		<g>
			<path class="st1" d="M94.5,19.4c-0.1-1.9-1.7-3.4-3.6-3.3c-1.9,0.1-3.4,1.7-3.3,3.6s1.7,3.4,3.6,3.3     C93.2,22.9,94.6,21.3,94.5,19.4"></path>
		</g>
		<g>
			<path class="st0" d="M91.1,23.1L91.1,23.1c-1.9,0-3.5-1.5-3.6-3.5c-0.1-2,1.5-3.7,3.5-3.8c0.1,0,0.1,0,0.2,0     c1.9,0,3.5,1.5,3.6,3.5c0.1,2-1.5,3.7-3.5,3.8C91.2,23.1,91.2,23.1,91.1,23.1z M91.1,16.2c-0.1,0-0.1,0-0.2,0     c-1.8,0.1-3.2,1.6-3.2,3.5c0.1,1.8,1.5,3.2,3.3,3.2l0,0c0.1,0,0.1,0,0.2,0c1.8-0.1,3.2-1.6,3.2-3.5     C94.3,17.6,92.8,16.2,91.1,16.2z"></path>
		</g>
		<g>
			<path class="st0" d="M91.1,23.1L91.1,23.1c-1.9,0-3.5-1.5-3.5-3.5S89,16,91,15.9c0.1,0,0.1,0,0.2,0c1.9,0,3.5,1.5,3.6,3.5     c0.1,2-1.5,3.7-3.5,3.8C91.2,23.1,91.1,23.1,91.1,23.1z M91.1,16.2c-0.1,0-0.1,0-0.2,0c-1.8,0.1-3.2,1.6-3.2,3.5     c0.1,1.8,1.5,3.2,3.3,3.2l0,0c0.1,0,0.1,0,0.2,0c1.8-0.1,3.2-1.6,3.2-3.5C94.3,17.6,92.8,16.2,91.1,16.2z"></path>
		</g>
		<g>
			<line class="st3" x1="92.1" y1="20.1" x2="92.8" y2="19.7"></line>
		</g>
		<g>
			<polygon class="st0" points="92.2,20.1 92,19.9 92.7,19.5 92.8,19.8    "></polygon>
		</g>
		<g>
			<line class="st3" x1="89.5" y1="18.8" x2="90.1" y2="19.4"></line>
		</g>
		<g>
			
				<rect x="89.6" y="18.7" transform="matrix(0.7458 -0.6662 0.6662 0.7458 10.1028 64.6379)" class="st0" width="0.3" height="0.8"></rect>
		</g>
		<g>
			<path class="st0" d="M89.8,22.7l-0.2-0.1c0.5-0.8,0.5-1.9,0.1-2.8l0.2-0.1C90.4,20.7,90.3,21.7,89.8,22.7z M94,21.3     c-0.6-0.3-1.1-0.8-1.4-1.3l0.2-0.1c0.3,0.5,0.8,1,1.3,1.2L94,21.3z"></path>
		</g>
		<g>
			<path class="st0" d="M92.4,20.1C92.3,20.1,92.3,20.1,92.4,20.1c-0.1-0.2-0.1-0.2,0-0.2l0.5-0.1l0.2-0.2c0.1,0,0.2,0,0.2,0     c0,0.1,0,0.2,0,0.2L92.9,20L92.4,20.1L92.4,20.1z"></path>
		</g>
		<g>
			<polyline class="st4" points="93.4,20.1 93.2,20.4 92.6,20.4    "></polyline>
		</g>
		<g>
			<path class="st0" d="M92.6,20.6C92.5,20.6,92.5,20.6,92.6,20.6c-0.1-0.2-0.1-0.2,0-0.2l0.5-0.1l0.2-0.2c0.1,0,0.1,0,0.2,0     c0,0.1,0,0.1,0,0.2l-0.3,0.2L92.6,20.6C92.7,20.6,92.7,20.6,92.6,20.6z"></path>
		</g>
		<g>
			<polyline class="st4" points="93.6,20.4 93.4,20.7 92.9,20.8    "></polyline>
		</g>
		<g>
			<path class="st0" d="M92.9,20.9C92.8,20.9,92.8,20.9,92.9,20.9c-0.1-0.2-0.1-0.2,0-0.2l0.5-0.2l0.2-0.2c0.1-0.1,0.2,0,0.2,0     c0.1,0.1,0,0.2,0,0.2l-0.3,0.2L92.9,20.9L92.9,20.9z"></path>
		</g>
		<g>
			<polyline class="st4" points="93.9,20.7 93.8,20.9 93.2,21.1    "></polyline>
		</g>
		<g>
			<path class="st0" d="M93.2,21.2C93.2,21.2,93.2,21.2,93.2,21.2c-0.1-0.2-0.1-0.2,0-0.2l0.5-0.2l0.2-0.2c0.1-0.1,0.1-0.1,0.2,0     c0.1,0.1,0.1,0.1,0,0.2L93.8,21L93.2,21.2L93.2,21.2z"></path>
		</g>
		<g>
			<polyline class="st4" points="94,21.1 94,21.1 93.5,21.4    "></polyline>
		</g>
		<g>
			<path class="st0" d="M93.5,21.5C93.5,21.5,93.5,21.5,93.5,21.5c-0.1-0.2-0.1-0.2,0-0.2l0.5-0.2c0.1,0,0.2,0,0.2,0.1     s0,0.2-0.1,0.2L93.5,21.5C93.6,21.5,93.5,21.5,93.5,21.5z M89.7,20.7C89.6,20.7,89.6,20.7,89.7,20.7c-0.1-0.2-0.1-0.2,0-0.2     l0.3-0.1l0.4-0.3c0.1,0,0.2,0,0.2,0c0,0.1,0,0.2,0,0.2l-0.5,0.3L89.7,20.7L89.7,20.7z M89.5,20.4C89.5,20.4,89.5,20.4,89.5,20.4     c-0.1-0.2-0.1-0.2,0-0.2l0.2-0.1l0.4-0.3c0.1-0.1,0.2,0,0.2,0c0.1,0.1,0,0.2,0,0.2l-0.5,0.4L89.5,20.4     C89.6,20.4,89.5,20.4,89.5,20.4z"></path>
		</g>
		<g>
			<polyline class="st4" points="89.8,21 90.1,21 90.5,20.7    "></polyline>
		</g>
		<g>
			<path class="st0" d="M89.8,22.7C89.8,22.7,89.8,22.7,89.8,22.7c-0.1-0.2-0.1-0.2,0-0.2H90l0.3-0.1c0.1,0,0.2,0,0.2,0.1     c0,0.1,0,0.2-0.1,0.2L90,22.7H89.8C89.9,22.7,89.9,22.7,89.8,22.7z M89.9,22.4h-0.3c-0.1,0-0.1-0.1-0.1-0.2     c0-0.1,0.1-0.1,0.1-0.1l0,0h0.3l0.5-0.2c0.1,0,0.2,0,0.2,0.1c0,0.1,0,0.2-0.1,0.2L89.9,22.4z M90,22h-0.3c-0.1,0-0.1-0.1-0.1-0.2     c0-0.1,0.1-0.1,0.2-0.1h0.3l0.5-0.2c0.1,0,0.2,0,0.2,0.1c0,0.1,0,0.2-0.1,0.2L90,22z M89.7,21.6C89.6,21.6,89.6,21.5,89.7,21.6     c-0.1-0.2,0-0.2,0-0.2H90l0.5-0.2c0.1,0,0.2,0,0.2,0.1c0,0.1,0,0.2-0.1,0.2L90,21.6H89.7L89.7,21.6z M89.8,21.1     C89.7,21.1,89.7,21.1,89.8,21.1c-0.1-0.2,0-0.2,0-0.2h0.3l0.5-0.2c0.1,0,0.2,0,0.2,0c0,0.1,0,0.2,0,0.2l-0.5,0.3H89.8L89.8,21.1z     "></path>
		</g>
		<g>
			<path class="st1" d="M95.1,16c-0.1-2.3-2-4.1-4.3-3.9c-2.3,0.1-4.1,2-3.9,4.3c0.1,2.3,2,4.1,4.3,3.9C93.5,20.2,95.3,18.2,95.1,16     "></path>
		</g>
		<g>
			<path class="st0" d="M91.1,20.4L91.1,20.4c-2.3,0-4.2-1.8-4.3-4.1c-0.1-1.2,0.4-2.2,1.2-3.1c0.8-0.8,1.8-1.3,3-1.4     c0.1,0,0.2,0,0.2,0c2.3,0,4.2,1.8,4.3,4.1c0.1,2.4-1.8,4.4-4.1,4.5C91.2,20.4,91.1,20.4,91.1,20.4z M91.1,12.1     c-0.1,0-0.2,0-0.2,0c-1.1,0.1-2.1,0.5-2.8,1.3s-1.1,1.8-1.1,2.8c0.1,2.2,1.8,3.8,4,3.8l0,0c0.1,0,0.2,0,0.2,0     c2.2-0.1,3.9-1.9,3.8-4.2C94.9,13.8,93.2,12.1,91.1,12.1z"></path>
		</g>
		<g>
			<polygon class="st0" points="90.1,16.7 91.4,17.3 92.3,16.4 91.7,15 90.2,15.2    "></polygon>
		</g>
		<g>
			<path class="st0" d="M91.5,17.8L89.6,17l0.2-2.2l2.1-0.4l0.9,2L91.5,17.8z M90.5,16.4l0.7,0.3l0.5-0.5l-0.4-0.8l-0.8,0.2     L90.5,16.4z"></path>
		</g>
		<g>
			<path class="st0" d="M93.8,16.5l0.8,1.1l0.3-0.1c0.2-0.5,0.2-1,0.2-1.5c0-0.2,0-0.3-0.1-0.5l-0.6-0.2L93.8,16.5"></path>
		</g>
		<g>
			<path class="st0" d="M94.6,17.8l-1-1.3l0.8-1.5l0.9,0.3v0.2c0,0.2,0.1,0.3,0.1,0.5c0,0.5-0.1,1.1-0.2,1.6v0.1L94.6,17.8z      M94.1,16.5l0.6,0.8h0.1c0.2-0.5,0.2-0.9,0.2-1.4c0-0.2,0-0.2,0-0.3l-0.3-0.1L94.1,16.5z"></path>
		</g>
		<g>
			<path class="st0" d="M90.8,19.4l0.5,0.8c0.6-0.1,1.2-0.2,1.8-0.5l0.2-0.5l-1.4-0.7L90.8,19.4"></path>
		</g>
		<g>
			<path class="st0" d="M91.2,20.4l-0.6-1.1l1.2-1.1l1.6,0.8l-0.2,0.7l-0.1,0.1c-0.5,0.3-1.2,0.5-1.8,0.5L91.2,20.4z M91.1,19.4     l0.3,0.5c0.5-0.1,1-0.2,1.5-0.5l0.1-0.2l-1.1-0.5L91.1,19.4z"></path>
		</g>
		<g>
			<path class="st0" d="M88,17.4l-0.3,1.1c0.2,0.4,0.5,0.7,0.9,0.9l0.7-0.5l-0.2-1.5L88,17.4"></path>
		</g>
		<g>
			<path class="st0" d="M88.5,19.7l-0.2-0.1c-0.4-0.3-0.7-0.6-0.9-1l-0.1-0.1l0.4-1.3h1.2l0.9-0.5l0.2,0.4l-0.9,0.5l0.2,1.5     L88.5,19.7z M87.9,18.4c0.2,0.3,0.5,0.5,0.7,0.7l0.5-0.4l-0.2-1.1l0,0l-0.1-0.2h-0.6L87.9,18.4z"></path>
		</g>
		<g>
			<path class="st0" d="M90.9,19.6l-2-0.6l0.1-0.2l2,0.6L90.9,19.6z M93.1,19.4l-0.2-0.2l1.7-1.9l0.2,0.2L93.1,19.4z M91.8,18.8     l-0.7-2.2l0.2-0.1l0.7,2.2L91.8,18.8z M94.2,16.6l-2.2-0.2v-0.2l2.2,0.2V16.6z"></path>
		</g>
		<g>
			<line class="st3" x1="88.1" y1="17.5" x2="87.3" y2="15.3"></line>
		</g>
		<g>
			<path class="st0" d="M87.9,17.6l-0.8-2.3l0.2-0.1l0.8,2.3L87.9,17.6z M94.5,15.5l-1.1-1.8l0.2-0.1l1.1,1.8L94.5,15.5z"></path>
		</g>
		<g>
			<path class="st1" d="M89.6,7.3c-2.8,0.2-4.8,2.5-4.7,5.2s2.5,4.8,5.2,4.8c2.8-0.2,4.8-2.5,4.8-5.2C94.7,9.4,92.4,7.1,89.6,7.3"></path>
		</g>
		<g>
			<path class="st0" d="M89.8,17.3c-2.7,0-4.9-2.1-5-4.8c-0.2-2.8,1.9-5.1,4.8-5.2c0.1,0,0.2,0,0.2,0c1.3,0,2.5,0.5,3.5,1.4     c0.9,0.9,1.5,2.2,1.5,3.4c0.1,1.3-0.4,2.6-1.3,3.6s-2.2,1.5-3.5,1.6C90,17.3,89.9,17.3,89.8,17.3z M89.9,7.4c-0.1,0-0.2,0-0.2,0     c-2.8,0.2-4.8,2.4-4.7,5.2c0.1,2.6,2.3,4.7,4.9,4.7c0.1,0,0.2,0,0.2,0c1.3-0.1,2.5-0.6,3.4-1.6c0.9-1,1.4-2.2,1.3-3.5     c-0.1-1.3-0.6-2.5-1.5-3.4C92.4,7.8,91.2,7.4,89.9,7.4z"></path>
		</g>
		<g>
			<path class="st0" d="M91.5,17.3l-3.5-9.6l0.3-0.1l3.5,9.6L91.5,17.3z M87.5,16.8L87.5,16.8c-1.8-0.9-2.7-2.5-2.8-4.5     c0-0.7,0.2-1.5,0.5-2.2v-0.1h0.2c0.1,0,0.2,0,0.2,0l0,0c0.9,0,1.9,0.3,2.6,0.9c0.7,0.6,1.2,1.5,1.2,2.5     C89.3,14.7,88.6,16.1,87.5,16.8L87.5,16.8z M85.5,14.4c0.4,0.8,1.1,1.5,1.9,2c0.9-0.6,1.5-1.8,1.5-2.9c0-0.2,0-0.3-0.1-0.5     L85.5,14.4z M85.4,10.4c-0.2,0.7-0.4,1.3-0.4,2c0,0.6,0.2,1.2,0.4,1.8l3.5-1.5c-0.2-0.5-0.5-1.1-0.9-1.5     c-0.6-0.6-1.5-0.9-2.4-0.8C85.5,10.4,85.4,10.4,85.4,10.4z M93.9,14.1c-1.9,0-3.5-1.5-3.6-3.5c-0.1-1.2,0.5-2.4,1.5-3.1l0.1-0.1     l0.1,0.1c1.8,0.8,2.9,2.5,3,4.4c0,0.7-0.1,1.3-0.3,1.9V14h-0.1c-0.2,0-0.3,0.1-0.4,0.1C94.1,14.1,94,14.1,93.9,14.1z M91,11.9     c0.5,1.2,1.8,1.9,3.1,1.8c0.1,0,0.2,0,0.3,0c0.2-0.5,0.3-1.2,0.2-1.8c0-0.5-0.2-1-0.3-1.5L91,11.9z M91.9,7.9     c-0.8,0.6-1.3,1.6-1.2,2.7c0,0.3,0.1,0.7,0.2,1l3.3-1.4C93.7,9.2,92.9,8.4,91.9,7.9z"></path>
		</g>
		<g>
			<path class="st0" d="M89.8,17.4c-0.5,0-1-0.1-1.5-0.2c-1.3-0.4-2.4-1.3-3.1-2.5c-0.7-1.2-0.8-2.6-0.4-3.9     c0.6-2.2,2.6-3.7,4.9-3.7c0.5,0,1,0.1,1.5,0.2c1.3,0.4,2.4,1.3,3.1,2.5c0.7,1.2,0.8,2.6,0.4,3.9C94.1,15.9,92.1,17.4,89.8,17.4z      M89.8,7.4c-2.2,0-4,1.5-4.6,3.5c-0.4,1.2-0.2,2.5,0.4,3.7s1.6,2,2.8,2.3c0.5,0.2,0.9,0.2,1.4,0.2c2.2,0,4-1.5,4.6-3.5     c0.4-1.2,0.2-2.5-0.4-3.7s-1.6-2-2.8-2.3C90.8,7.5,90.3,7.4,89.8,7.4z"></path>
		</g>
	</g>
</g>
</svg>
