<?xml version="1.0" encoding="UTF-8"?>
<svg xmlns="http://www.w3.org/2000/svg" width="257.636" height="263.31">
  <path d="M151.32 164.156c0-4.237-3.578-6.847-11.657-6.847h-18.21v13.873h18.72c6.957 0 11.147-2.157 11.147-6.847v-.18zm-3.984-25.232c0-4.152-3.689-6.491-10.335-6.491h-15.548v13.34h14.52c6.96 0 11.363-1.987 11.363-6.677v-.172zm-7.164 44.426h-34.066v-63.087h33.246c14.633 0 23.64 6.399 23.64 16.312v.182c0 7.119-4.303 11.084-9.41 13.612 8.281 2.79 13.393 7.024 13.393 15.495v.187c0 11.533-10.636 17.299-26.803 17.299"></path>
  <path d="M38.008 183.324h15.55v-8.771a95.391 95.391 0 0 0-15.55 2.881v5.89z" fill="#231f20"></path>
  <path d="M86.095 120.262v38.85l-33.558-38.85h-14.53v43.758a87.333 87.333 0 0 1 15.55-2.37v-18.403l34.684 40.1h13.396v-63.085H86.095zM204.921 184.414c5.448-6.433 9.26-10.33 10.185-11.181.939-.863 1.901-1.292 2.874-1.292.773 0 1.34.28 1.661.503.572.285 2.558 1.308 4.43 2.755 1.363 1.047 1.61 2.165 1.576 2.919-.018.472-.15.88-.33 1.234 2.946-1.706 5.603-3.784 8.153-6.188l-10.027-8.922c-5.626 4.508-10.646 7.398-18.833 7.398-12.278 0-20.778-9.017-20.778-19.832v-.18c0-10.822 8.698-19.65 20.778-19.65 7.17 0 12.8 2.706 18.322 7.12l10.037-10.178c-6.657-5.771-14.746-9.736-28.261-9.736-21.997 0-37.339 14.683-37.339 32.624v.18c0 18.118 15.65 32.442 36.727 32.442.285 0 .546-.013.825-.016"></path>
  <path d="M135.583 13.737c2.554-4.193 6.812-8.556 11.379-10.396 7.851-3.604 18.427-2.073 24.857 3.607 6.22 5.634 9.376 13.348 7.891 21.988 1.54-.285 3.066-1.27 4.693-1.816 9.616-2.719 19.83.232 26.007 8.518 4.67 5.9 5.864 15.081 3.08 22.192-1.393 3.599-3.752 6.844-6.81 9.589l.313.295c8.977.443 17.8 7.409 20.536 15.967 2.93 8.624.34 17.839-5.977 24.143-5.162 5.08-11.759 6.863-19.13 6.702H68.746c-10.992.24-19.466-4.627-24.043-14.383-3.572-8.392-1.822-19.11 4.896-25.471 4.184-4.432 9.473-6.24 15.192-7.145-6.444-5.974-9.576-14.187-7.757-22.967 1.313-7.121 7.38-14.33 14.335-16.813 6.151-2.439 14.461-2.012 20.09 1.303l.217-.238c-1.704-9.697 2.604-18.432 10.62-23.784 7.158-4.835 18.63-4.727 25.658.425 3.14 1.94 5.745 5.244 7.628 8.284" fill="#fff"></path>
  <path d="M173.446 17.361c2.842 5.78 1.202 13.378-1.832 18.58l-23.191 52.205-.19.222-8.41-52.944c-.676-5.065 4.787-7.235 7.97-9.69-.143-.746-.992-.711-1.516-1.054l-7.82-.084-.232-.248c.023-6.555 3.588-12.637 9.568-15.82 6.254-3.627 15.083-2.641 20.504 1.991 2.201 1.975 4.07 4.266 5.15 6.842" fill="#5f53ae"></path>
  <path d="M130.705 15.53c1.877 3.503 2.995 7.503 2.317 11.903l-9.452 60.614c.037.1-.034.169-.124.198l-2.433-4.862L97.3 30.428c-2.215-6.826-.153-13.944 4.788-18.822 4.999-5.088 13.267-6.475 19.784-3.699 3.475 1.485 6.766 4.248 8.833 7.622" fill="#c81a46"></path>
  <path d="M207.75 41.061c3.185 5.44 2.463 13.665-1.07 18.714-2.21 3.549-5.85 5.307-8.88 7.643l-49.126 33.711h-.135l.554-1.619 26.041-58.752c3.9-6.934 11.33-10.451 19.223-9.389 5.397.978 10.778 4.488 13.393 9.692" fill="#0e88d3"></path>
  <path d="M96.157 40.757l27.098 60.371h-.448L68.18 63.473c-5.563-4.672-7.82-11.693-5.934-18.788C63.653 39.368 68.07 34.4 73.3 32.44c8.593-3.148 18.282.192 22.857 8.318" fill="#f25c19"></path>
  <path d="M221.997 83.68c2.7 5.743 1.635 13.626-2.249 18.52-3.86 4.69-9.027 7.234-15.083 7.07l-58.244.048 48.794-33.937c4.778-3.074 12.015-3.633 17.209-1.15 4.029 1.561 7.796 5.508 9.573 9.45" fill="#33b540"></path>
  <path d="M49.526 83.68c-2.732 5.743-1.666 13.626 2.225 18.52 3.868 4.69 9.035 7.234 15.089 7.07l58.26.048-48.803-33.937c-4.761-3.074-12.014-3.633-17.224-1.15-4.013 1.561-7.794 5.508-9.547 9.45" fill="#fab20b"></path>
  <path d="M55.496 210.55c-2.985 5.204-13.13 11.445-16.513 13.343-1.872 1.057-6.196 3.58-11.524 5.513-5.877 2.13-11.124 3.108-11.611 1.669-.203-.604-.596-.868 1.313-2.882 2.243-2.346 9.085-6.744 15.405-10.013 7.353-3.813 15.55-7.185 23.117-9.959.314.594.374 1.35-.187 2.328m55.25-15.273c-2.891-2.244-7.01-.475-7.01-.475-7.917 2.524-16.457 8.84-23.22 14.744 3.101-3.56 6.61-7.393 10.612-11.532 0 0 2.85-1.466.66-3.626-2.186-2.154-4.786-4.194-4.786-4.194s-1.041-.915-1.537-.54c-.493.374-.126 1.378-.031 1.523.087.137-1.303 1.838-1.303 1.838s-.095.1-.23.248c-2.293 2-6.44 4.005-8.547 4.956-4.543 1.661-10.343 3.618-16.589 5.838a7.535 7.535 0 0 0-1.276-1.01c-7.461-4.67-29.772-5.075-38.338-5.708-9.251-.696-11.334-1.3-11.68-2.832-.448-1.99 2.468-4.806 6.647-7.854 16.186-11.806 38.53-14.208 45.765-14.087 7.941.124 10.166 1.055 10.288 1.637.124.56-.256.992-.256.992-1.279 1.492-3.035 2.425-4.928 3.643-7.269 4.706-15.165 8.184-15.165 8.184-1.727 1.608 1.627 2.014 1.627 2.014 4.611-.15 9.035-1.263 13.193-2.855 8.603-3.293 10.67-6.262 10.915-8.03.425-3.054-.883-6.247-.717-5.967-2.204-9.352-17.021-8.975-17.021-8.975-12.793.045-31.945 3.691-48.95 16.164-8.717 6.389-7.398 10.966-7.398 10.966s-.153 8.866 6.575 11.02c2.718.873 4.698 1.335 9.133 1.777 8.606.863 14.976.984 23.895 1.59 5.257.362 8.903.957 11.395 1.609-7.295 2.694-14.81 5.71-21.361 8.993-5.719 2.866-14.282 7.672-17.348 11.513-3.67 4.601-.243 8.258-.67 7.462.543 1.012 2.831 5.115 12.61 3.876 4.778-.61 10.354-2.872 14.673-5.215 6.18-3.36 10.76-7.267 13.525-9.938 5.54-5.35 7.108-9.475 7.116-13.071 0-1.387-.277-2.521-.627-3.407 6.678-2.317 12.536-4.09 16.425-5.18-10.891 13.09-29.265 38.158-21.116 49.674 0 0 .53.897 1.245 1.706 0 0 1.442 1.194 1.982.464.54-.728-1.065-1.51-1.065-1.51-.467-.57-.76-1.482-.551-3.02.214-1.531.628-3.93 1.951-7.406l2.246-5.04c-.005.005-.008.013-.013.02.008-.02.019-.036.03-.055l-.017.034c2.795-4.848 7.565-11.532 13.317-17.245 14.343-14.245 27.146-20.114 29.767-20.955 1.906-.61 2.742-.448 3.056-.158 1.832 1.642-2.73 8.985-2.73 8.985-.078.119-.152.224-.231.335-8.224 11.999-13.043 15.334-17.346 16.979-2.98.883-4.79-.105-5.339-.48-1.044-.994-1.624-2.357-1.53-3.021.185-1.263-.379-1.226-.379-1.226-2.048.696-.907 4.31-.907 4.31 1.522 6.84 11.016 8.585 20.017 1.846 11.904-8.909 14.263-16.051 15.97-20.388 1.7-4.337-1.538-7.68-4.422-9.94M256.219 190.24c-.654-3.913-6.602-4.835-17.035-4.002-5.508.437-15.917 1.914-25.255 3.406l9.178-10.24s1.995-1.284-.056-2.866c-2.048-1.582-4.284-2.642-4.284-2.642s-.915-.878-2.515.583c-.936.862-6.837 6.844-15.11 17.19-9.215 1.229-19.819 1.977-22.55 2.299 0 0-1.345.277-1.867-.649 0 0-1.197-.833-.918 1.166 0 0 .293 5.304 5.403 4.34 2.897-.549 8.787-1.319 16.135-2.307-1.244 1.618-3.15 4.044-5.178 6.883-9.165 10.003-24.717 26.081-28.195 23.953 0 0-.762-.706-.23-2.423.786-2.554 3.737-7.187 9.666-14.142 0 0 2.732-3.24 2.618-4.672-.171-2.196-1.4-2.149-1.4-2.149s-7.883-2.33-10.514-4.693c1.104-1.713 3.119-5.539.545-7.33 0 0-3.314-2.103-5.742 2.885-.98 1.99-.894 3.907.382 5.674-1.803 1.911-6.797 6.794-11.77 8.236-.281-1.734-1.017-2.792-2.121-3.345 0 0-2.74-1.38-4.227.337-1.479 1.709-.169 3.414 1.35 4.577-.45 1.355-1.703 3.13-3.456 5.877-2.241 3.522-5.163 6.858-9.15 9.56-1.352.923-6.883 4.118-8.336-.256-.793-2.407.535-7.063 3.944-12.354 7.019-10.929 16.832-14.51 19.49-12.809 0 0 1.247 1.234.508 2.597 0 0-.282.75.723.839 1.015.097 1.577-.783 1.745-1.667.417-2.312-1.68-4.959-4.068-6.857-.717-.57-1.542-.965-2.491-1.442 0 0-4.174-1.472-9.874 1.365-1.75.865-9.225 4.983-14.66 14.662-1.724 3.064-2.81 6.346-2.773 9.523.013 2.094.406 4.16 1.527 6.083.43.733 2.713 3.736 5.782 5.307 6.124 3.137 13.311-2.826 16.111-5.379 4.925-4.51 8.693-10.485 9.558-13.082 6.454-1.669 12.84-8.136 14.922-10.409.38.253.765.504 1.208.746l3.876 2.06c-2.273 2.615-2.286 2.625-4.696 6.024-2.478 3.504-8.632 11.735-4.653 17.034.777 1.052 1.837 2.344 3.577 3.032 5.255 2.08 11.21-3.084 20.426-12.768a212.046 212.046 0 0 0 4.202-4.559 38.75 38.75 0 0 0-1.537 3.44c-2.149 5.603-.902 10.647 3.607 13.64 2.673 1.774 6.148.965 10.116-1.646 7.841-5.173 19.416-16.823 26.766-24.572a51.763 51.763 0 0 0-.749 3.533c-1.745 9.72-7.645 22.223-9.974 19.02-.042.47-.073-2.162-1.336-3.225-1.152-.957-2.16-1.21-3.446-.366-1.672 1.1-.841 5.186 4.295 7.81 1.176.6 2.225.92 3.19 1.033 2.795.472 8.453.516 15.12-4.48 9.028-6.78 18.804-16.5 18.804-16.5s1.959-1.731.106-2.802c0 0-.9-.469-1.748.29a8.409 8.409 0 0 0-.923 1.01c.132-.132-13.692 13.043-21.868 17.46 1.319-1.62 2.144-3.958 2.837-6.724.58-2.323 1.577-8.59 2.626-13.183.572-2.5 1.38-4.505 1.64-5.099.994-2.24 2.373-2.05 2.692-2.705.23-.461.142-.88-.45-1.61-.496-.623-1.16-1.264-1.707-1.767-.648-.599-2.006-1.519-2.726-1.656-.495-.095-1.062-.058-1.563.338-.456.356-1.253 1.067-2.146 2.573-4.954 5.405-21.198 22.735-31.14 28.635.53-.319-8.073 5.497-6.254-2.067.836-3.443 4.29-11.147 13.992-23.307l5.044-5.631c4.141-.594 8.45-1.24 12.747-1.936 0 0 37.916-4.7 27.65 3.373 0 0 .659 1.27 2.243.015 3.301-2.612 4.532-4.885 4.34-6.09"></path>
</svg>
