<?xml version="1.0" encoding="UTF-8"?>
<!-- Generator: Adobe Illustrator 22.0.1, SVG Export Plug-In . SVG Version: 6.00 Build 0)  -->
<svg xmlns="http://www.w3.org/2000/svg" xmlns:xlink="http://www.w3.org/1999/xlink" id="Layer_1" x="0px" y="0px" viewBox="0 0 2500 1000" style="enable-background:new 0 0 2500 1000;" xml:space="preserve">
<g>
	<path d="M36.8,500C36.8,234.3,252.2,18.8,518,18.8c265.8,0,481.2,215.5,481.2,481.2c0,265.8-215.4,481.2-481.2,481.2   C252.2,981.2,36.8,765.8,36.8,500L36.8,500z M793.8,503.5h52L729.1,236.9h-76.5l117.2,266.6h-53.4v70.7c0.2,42.9-17.8,61.2-76,60.4   v136.5h75.8V634.7h25c22.2,0.6,52.3-17.4,52.7-52.5L793.8,503.5L793.8,503.5L793.8,503.5z M426.3,236.9   c-117.2,0-213.7,81.9-213.7,203.3c0,102.1,61.5,175,153.2,188.9v142h190.9V634.7h26.5c30.9-3,51.9-23.5,52.3-52.2v-79h52   L569.2,236.9L426.3,236.9L426.3,236.9z M531.7,468.1c27.2,0,49.2-22,49.2-49.2c0-27.2-22-49.2-49.2-49.2c-27.2,0-49.2,22-49.2,49.2   C482.5,446.1,504.5,468.1,531.7,468.1z M1234.2,321.2h-67.4v-83.6h223.1c121.2,0,190.5,62.5,190.5,160.6   c0,100.1-72.7,161-187.3,161c-9.6,0.3-61.2,0.1-61.2,0.1v127h79v84h-245.1v-84h68.3V321.2z M1331.9,475.4h65.1   c55.4,0,85.7-34.5,85.7-77.1c0-44.1-31.8-77.2-85.7-77.2h-65.1V475.4L1331.9,475.4z M1675.7,321.2h-61.3v-83.6h214.2   c132.6,0,174.9,79.4,174.9,137.2c0,49.1-26.1,88.4-64.3,107.1c53.6,22.4,83.7,77.5,83.7,125.7c0,116-91.2,162.8-178.4,162.8h-237   v-84h68.4L1675.7,321.2L1675.7,321.2z M1773.3,686.3h62.2c51.4,0,86.1-28.2,86.1-75.8c0-40.3-27.1-75.5-86.1-75.5h-62.2V686.3z    M1773.3,450.9h58.4c44,0,73.5-26,73.5-65c0-38.5-29.3-64.7-73.5-64.7h-58.4V450.9z M2098.8,606.1v164.2h79V738   c14.9,12.8,47.9,42.2,111.8,42.2c110.6,0,173.7-79.4,173.7-166.8c0-69.3-39.1-126.2-119-150.7c-23.4-7.2-45.2-13.8-78.8-24.1   c-39.8-12.1-66.4-33.6-66.4-65.6c0-41,36-59.1,69.1-59.1c57.7,0,82,40.3,85.4,74.3h79.9V237.7h-76.1v25.1   c-14.7-14.5-45.2-35.4-99.2-35.4c-87.8,0-157.7,57.7-157.7,147.3c0,77.7,43.3,124.9,115.4,147.8c27,8.7,40.1,12.3,65.8,19.6   c54.1,15.6,75.4,46.1,75.4,78.9c0,37.7-27.1,72.9-79.9,72.9c-56,0-90.5-41.3-93.6-87.7L2098.8,606.1L2098.8,606.1z"></path>
</g>
</svg>
