<?xml version="1.0" encoding="UTF-8"?>
<svg xmlns="http://www.w3.org/2000/svg" width="156" height="35" viewBox="0 0 156 35" fill="none">
  <g clip-path="url(#clip0)">
    <path d="M135.112 1.86827C135.002 2.47266 134.782 5.21991 135.085 6.18145C135.359 7.14299 136.184 7.61002 136.651 7.77486C137.118 7.96717 137.366 8.57156 136.431 8.76387C136.266 8.79134 135.469 8.79134 135.249 9.36827C135.03 9.94519 135.222 9.97266 135.359 10.11C135.497 10.2474 135.552 10.7144 135.442 10.9891C135.332 11.2639 135.085 12.4177 135.085 12.4177C135.112 12.4177 135.689 11.4562 135.689 11.2089C135.689 10.9617 135.717 10.2474 136.431 9.97266C137.146 9.69794 137.833 8.98365 137.86 8.4342C137.888 7.91222 137.641 7.80233 137.393 7.6375C137.146 7.50013 136.871 7.08805 137.228 6.70343C137.586 6.31882 138.08 6.31882 138.328 6.84079C138.438 7.08805 138.822 7.28035 138.712 6.81332C138.603 6.34629 138.328 5.52211 138.273 5.11002C138.245 4.67046 137.833 4.2309 137.558 3.90123C137.283 3.57156 137.091 3.18695 136.459 3.07706C135.827 2.96717 135.854 2.3353 135.717 2.08805C135.579 1.86827 135.332 1.20893 135.112 1.86827Z" fill="#FD0D1B"></path>
    <path d="M140.581 15.7418C141.076 15.3847 142.285 16.099 142.285 16.099C142.285 16.099 141.158 15.5495 140.581 15.7418Z" fill="#FD0D1B"></path>
    <path d="M139.894 17.8846C140.362 17.6373 140.856 17.2527 141.296 17.2802C141.736 17.3077 142.203 18.1868 142.203 18.434C142.203 18.5989 141.846 18.7637 141.928 19.0384C142.011 19.3132 141.681 19.5055 141.379 19.5604C141.104 19.6428 140.774 19.4231 141.131 19.2308C141.488 19.0659 141.296 18.7637 141.021 18.5989C140.746 18.434 140.444 18.3516 140.142 18.3516C139.784 18.3516 139.62 17.9945 139.894 17.8846Z" fill="#FD0D1B"></path>
    <path d="M144.484 22.8573C144.704 22.7749 144.841 22.665 144.814 22.5826C144.786 22.5001 144.594 22.5001 144.374 22.5826C144.154 22.665 144.017 22.7749 144.044 22.8573C144.099 22.9397 144.292 22.9397 144.484 22.8573Z" fill="#FD0D1B"></path>
    <path d="M144.292 25.357C144.457 25.0823 145.006 24.7801 145.144 24.7526C145.281 24.7251 145.611 24.5328 145.776 24.313C145.941 24.0933 146.271 24.0383 146.463 24.4229C146.628 24.8075 146.71 25.3845 146.683 25.6317C146.655 25.879 146.298 26.0713 145.968 26.1537C145.638 26.2636 145.501 26.2636 145.529 25.9339C145.556 25.6043 145.006 25.2196 144.649 25.4669C144.292 25.7691 144.099 25.6592 144.292 25.357Z" fill="#FD0D1B"></path>
    <path d="M126.812 5.87915C125.74 5.90662 124.558 6.53849 123.459 7.28025C124.778 6.62091 126.097 6.15388 126.812 5.87915Z" fill="#FD0D1B"></path>
    <path d="M119.886 10.0549C119.694 10.3296 119.968 10.3846 120.106 10.1922C120.188 10.0824 121.672 8.48895 123.459 7.25269C122.085 7.96697 120.683 8.84609 119.886 10.0549Z" fill="#FD0D1B"></path>
    <path d="M155.148 13.1594C154.818 13.7089 154.406 14.3682 153.939 15.0825C154.351 14.6979 154.736 14.2858 155.093 13.8462C155.423 13.4341 155.368 13.1594 155.148 13.1594Z" fill="#FD0D1B"></path>
    <path d="M146.683 20.6868C147.26 21.5385 148.497 21.511 148.744 21.3736C148.991 21.2363 149.596 20.9341 149.843 21.6209C150.531 23.489 148.909 24.6978 148.882 25C148.827 25.7418 148.139 27.2253 147.425 27.6099C146.71 27.9945 146.023 28.0769 145.473 27.967C144.896 27.8571 142.12 26.8132 141.846 26.6484C141.571 26.4835 141.516 26.7308 141.736 26.8681C142.065 27.0879 142.203 27.6648 141.653 27.5824C139.647 27.3352 139.619 26.7582 139.592 26.5385C139.564 26.3187 139.784 26.2912 139.784 25.9341C139.784 25.5769 138.74 25.3022 138.08 25.2198C134.342 24.7253 135.139 21.2363 135.222 20.7692C135.304 20.3022 135.387 19.5055 135.002 18.4615C134.617 17.3901 135.277 15.9341 135.387 15.7418C135.497 15.5495 135.414 15.3571 135.222 15.6044C134.865 15.989 134.617 17.1703 134.645 17.5C134.672 17.8297 134.452 17.967 134.287 17.7747C133.655 17.1429 133.848 15.2747 134.013 14.9451C134.15 14.6154 134.15 14.3681 133.903 14.4231C133.655 14.4506 133.325 14.5055 133.408 13.7088C133.49 12.9121 132.941 10.1099 132.886 9.64286C132.803 9.17582 132.446 8.92857 132.446 9.67033C132.473 10.8791 132.336 15.1374 132.061 16.3462C131.786 17.5549 131.072 19.2582 131.099 20.2747C131.127 21.0714 131.567 21.456 132.419 22.033C133.271 22.6099 133.271 23.544 133.133 23.7363C132.996 23.956 132.776 24.2033 132.144 23.7637C131.374 23.2967 130.989 23.0769 130.22 22.6374C129.23 22.033 128.323 21.8956 127.664 22.1703C126.977 22.4451 124.778 23.1319 124.778 23.1319C124.228 23.2692 124.008 23.544 123.953 23.9835C123.871 25 123.129 24.5055 122.964 24.4231C122.799 24.3132 122.387 23.7088 122.964 23.1044C123.926 22.0879 124.778 19.7802 124.833 19.1484C124.86 18.5165 123.953 16.7857 123.761 16.511C123.596 16.2363 123.321 16.2637 123.514 16.6209C123.926 17.4176 123.926 18.8187 123.651 18.9011C122.991 19.1209 122.552 17.5824 122.469 15.9341C122.387 14.2857 122.662 12.3077 123.761 11.1538C123.761 11.1538 126.399 8.73626 127.444 7.77473C128.488 6.81319 128.763 5.85165 129.258 4.42308C129.753 2.99451 130.934 2.39011 131.567 2.06044C132.199 1.73077 134.095 0.576923 134.425 0.412088C134.672 0.302198 135.991 0.412088 136.926 0.412088C137.86 0.412088 138.135 0.851648 138.465 1.23626C138.795 1.62088 140.499 3.24176 140.939 3.54396C141.378 3.87363 140.939 4.64286 140.939 4.64286C140.966 4.72528 142.588 5.16484 142.972 5.52198C143.357 5.87912 143 6.15385 142.588 6.04396C142.148 5.93407 140.719 5.96154 140.334 6.01648C139.949 6.04396 139.647 6.26374 140.197 6.45604C140.719 6.64835 142.12 7.14286 143.082 7.30769C144.044 7.47253 144.319 7.8022 144.512 8.62637C144.704 9.45055 144.979 9.80769 145.391 10.0275C145.831 10.2473 146.271 10.6044 146.298 10.8242C146.298 11.044 145.693 11.511 145.309 11.6484C144.924 11.7857 145.061 12.1978 145.446 12.2253C146.765 12.3352 149.624 11.1538 149.981 10.9066C150.228 10.7143 150.421 10.7143 150.476 10.8791C150.641 10.3571 150.75 10 150.723 10C150.558 9.91758 147.975 11.8956 147.232 10.9615C146.49 10.0275 147.342 9.28572 148.084 9.17583C148.827 9.06594 149.706 8.95604 150.036 7.5C150.173 6.8956 150.668 4.53297 150.613 4.47802C150.531 4.3956 148.607 7.22528 147.397 8.15934C147.04 8.43407 145.886 8.07692 145.446 7.30769C144.979 6.51099 143.33 5.05495 142.478 4.56044C141.626 4.06593 140.306 2.66484 139.592 1.92308C138.795 1.0989 137.998 0 136.789 0H134.727C134.123 0 133.903 0.10989 133.325 0.494505C132.748 0.879121 130.742 1.8956 130.082 2.36264C129.395 2.82967 127.581 5.35714 127.251 5.63187C127.169 5.68681 127.032 5.76923 126.784 5.87912C127.004 5.87912 127.197 5.87912 127.389 5.93407C127.554 5.96154 127.691 6.7033 127.664 6.75824C127.169 7.99451 120.6 11.8407 120.38 15.2198C120.353 15.6868 120.298 16.7857 120.216 17.3901C120.106 17.9945 120.353 19.1758 120.71 19.6429C121.068 20.1099 121.7 21.1813 121.7 22.1703C121.7 23.1593 121.837 24.5604 121.095 24.6429C120.353 24.7253 120.353 23.6813 120.271 23.2143C120.216 22.7747 119.006 21.511 119.006 21.511C119.006 21.4835 119.034 21.4286 119.089 21.3187C118.512 21.8956 117.66 22.1703 116.808 22.4451C116.862 22.4451 116.972 22.4451 116.972 22.4451C116.972 22.4451 116.945 22.5 116.917 22.5549C116.643 23.1868 116.313 23.0495 115.983 23.0495C115.653 23.0495 114.334 22.8846 114.306 23.6813C114.279 24.5055 113.345 25.4396 113.207 25.7418C113.097 26.0165 112.822 27.2253 112.218 26.4286C111.97 26.0989 111.063 25.1923 111.063 25.1923C111.063 25.1374 112.163 24.4506 112.025 23.6813C111.888 22.9396 111.448 22.967 111.393 23.3242C111.311 23.6813 110.761 24.3681 110.486 24.0659C110.211 23.7363 109.772 24.1758 109.524 24.3407C109.277 24.5055 108.81 25.1374 108.892 25.522C108.975 25.9066 109.112 26.3736 109.084 26.6758C109.057 26.9506 109.112 27.3901 109.442 27.6648C109.772 27.9396 110.431 28.489 110.761 28.6264C111.091 28.7637 111.503 28.8187 112.08 28.8187C112.657 28.8187 113.18 28.6813 113.674 28.2143C114.664 27.1978 115.186 26.7033 116.175 25.6868C116.753 25.4945 119.611 26.511 120.271 27.2253C120.628 27.6099 120.463 28.4615 120.49 28.4615C120.6 28.5714 122.717 27.8571 123.843 28.544C124.998 29.2308 125.41 29.533 125.657 29.8626C125.905 30.1923 125.822 30.9066 125.767 30.9615C125.63 31.0989 124.833 31.5659 124.695 32.033C124.558 32.5 124.338 33.7088 124.86 34.2033C125.383 34.6978 127.664 35.2473 129.89 34.9176C130.605 34.8077 132.116 33.7637 132.473 33.5989C132.638 33.5165 134.865 33.9286 135.222 33.7363C135.634 33.5165 136.514 31.8681 137.86 31.8681C138.602 31.8681 139.152 31.6484 139.784 30.5769C140.197 29.8901 141.104 28.9835 141.928 28.4341C142.753 27.9121 143.385 27.9396 143.962 28.4615C144.539 28.9835 145.254 29.1758 146.106 28.8462C146.738 28.5714 147.068 28.4066 147.7 28.1319C148.332 27.7747 149.019 26.8132 149.129 26.1813C149.239 25.5495 149.156 25.0824 149.706 24.4231C150.036 24.0385 150.366 22.2253 149.981 21.456C149.843 21.1813 149.789 20.9615 150.201 20.7143C150.421 20.5769 152.345 17.5549 153.911 15.0549C151.383 17.3901 147.865 18.5714 147.013 18.8462C146.051 19.2033 146.106 19.8352 146.683 20.6868ZM109.524 25.522C109.387 25.3297 109.277 24.8901 109.607 24.5879C109.827 24.3681 110.349 24.3681 110.569 24.5879C110.788 24.8077 110.569 25.2747 110.349 25.522C110.129 25.7692 109.634 25.6593 109.524 25.522ZM111.421 27.033C111.063 27.3077 110.706 27.3077 110.431 27.033C110.156 26.7582 110.074 26.3736 110.349 26.0989C110.679 25.7692 111.063 25.8242 111.311 26.0714C111.558 26.3187 111.778 26.7582 111.421 27.033ZM129.12 33.956C128.021 34.2033 126.399 33.9835 125.657 33.7363C124.915 33.489 124.75 32.4451 125.135 31.9506C125.465 31.5385 126.125 31.511 126.537 31.9231C126.922 32.3077 128.076 32.9121 128.928 33.022C129.753 33.1593 129.588 33.8187 129.12 33.956ZM133.82 31.0714C133.6 31.5385 133.106 31.7582 132.501 31.8681C131.896 31.978 130.192 32.1978 129.862 32.3626C129.533 32.5275 128.818 32.8022 128.543 32.0879C128.268 31.3736 127.856 31.456 127.609 31.4011C127.361 31.3736 127.059 31.1264 127.004 30.9615C126.839 30.4945 127.334 30.0275 127.334 29.4231C127.334 28.8187 127.142 27.4176 126.839 26.8956C126.674 26.6209 126.372 26.2912 126.125 26.2637C125.877 26.2363 125.465 25.8517 125.383 25.8242C125.163 25.7967 124.531 26.2088 124.228 25.989C123.953 25.7692 123.953 24.8077 124.558 24.3956C125.163 23.956 129.67 21.2912 132.886 25.0824C133.271 25.5495 133.463 26.1264 133.216 26.6209C132.968 27.1154 132.886 27.5824 133.243 28.2967C133.573 29.011 134.04 30.6044 133.82 31.0714ZM134.7 20.0824C134.315 20.1374 134.178 19.6154 134.123 19.2857C134.095 18.956 134.178 18.2967 134.452 18.2418C134.727 18.2143 134.837 18.8462 134.92 19.1484C134.975 19.4506 134.947 20.0549 134.7 20.0824Z" fill="#FD0D1B"></path>
    <path d="M145.941 14.6977C145.694 14.6977 145.254 14.6153 145.199 15.1922C145.116 15.7691 146.051 16.0438 147.15 16.0988C150.283 16.2087 154.296 13.5988 154.791 13.2691C154.928 13.1867 155.066 13.1317 155.148 13.1317C155.67 12.3076 156 11.7581 156 11.7581C155.973 11.7306 151.96 14.6427 149.871 15.2196C148.964 15.4669 148.799 14.7251 149.074 14.3405C149.239 14.1207 149.761 12.7196 150.146 11.5383C149.019 13.7361 146.161 14.6977 145.941 14.6977Z" fill="#FD0D1B"></path>
    <path d="M150.366 11.0713C150.393 10.9889 150.393 10.9065 150.393 10.8516C150.311 11.0713 150.228 11.3186 150.146 11.5658C150.228 11.401 150.311 11.2362 150.366 11.0713Z" fill="#FD0D1B"></path>
    <path d="M105.896 25.6318H78.1374V25.989H105.896V25.6318Z" fill="#FD0D1B"></path>
    <path d="M106.474 24.3408H97.8436V24.698H106.474V24.3408Z" fill="#FD0D1B"></path>
    <path d="M105.896 25.6318H78.1374V25.989H105.896V25.6318Z" fill="#FD0D1B"></path>
    <path d="M107.216 26.9231H67.5835V27.2802H107.216V26.9231Z" fill="#FD0D1B"></path>
    <path d="M107.49 28.2141H85.0084V28.5713H107.49V28.2141Z" fill="#FD0D1B"></path>
    <path d="M108.342 29.5054H102.626V29.8625H108.342V29.5054Z" fill="#FD0D1B"></path>
    <path d="M120.463 19.3408C120.463 17.8848 120.463 17.1705 120.463 15.7144H115.461V17.9122H117.742C117.77 17.9122 117.742 18.6815 117.742 18.6815C117.742 19.2584 117.275 19.6979 116.725 19.6979H114.004C113.427 19.6979 112.987 19.2309 112.987 18.6815V14.176C112.987 13.599 113.455 13.1595 114.004 13.1595H116.725C117.302 13.1595 117.742 13.6265 117.742 14.176H120.463V13.5166C120.463 11.8133 119.089 10.4397 117.385 10.4397H113.345C111.641 10.4397 110.266 11.8133 110.266 13.5166V19.3408C110.266 21.0441 111.641 22.4177 113.345 22.4177H117.385C117.44 22.4177 117.55 22.4177 117.55 22.4177C117.55 22.4177 117.55 22.4177 117.55 22.4452C118.319 21.9782 119.061 21.9232 119.611 21.4562C119.666 21.2639 120.463 20.1375 120.463 19.3408Z" fill="#FD0D1B"></path>
    <path d="M46.0358 22.4177C47.0253 18.9836 47.52 17.2529 48.5094 13.8188C48.8667 12.7749 49.4714 13.1045 49.4988 13.9012C49.4988 17.3078 49.4988 19.0111 49.4988 22.4177H51.8625V10.4397H47.1077C46.2282 13.5166 45.816 15.0551 44.9365 18.1595C44.002 15.0826 43.5348 13.5441 42.6278 10.4397H37.873C37.873 15.2474 37.873 17.6375 37.873 22.4177H40.2367C40.2367 19.0111 40.2367 17.3078 40.2367 13.9012C40.2642 13.1045 40.8688 12.8023 41.2261 13.8188C42.2155 17.2529 42.7103 18.9836 43.6997 22.4177H46.0358Z" fill="#FD0D1B"></path>
    <path d="M63.9281 10.4397V13.1595H67.0613C67.0613 16.8683 67.0613 18.7364 67.0613 22.4452H69.7822C69.7822 18.7364 69.7822 16.8683 69.7822 13.1595H72.9154V10.4397H63.9281Z" fill="#FD0D1B"></path>
    <path d="M92.1819 10.4397H88.1418C86.4377 10.4397 85.0635 11.8133 85.0635 13.5166V19.3408C85.0635 21.0441 86.4377 22.4177 88.1418 22.4177H92.1819C93.8859 22.4177 95.2601 21.0441 95.2601 19.3408V13.5166C95.2601 11.8133 93.8859 10.4397 92.1819 10.4397ZM92.5667 18.6815C92.5667 19.2584 92.0995 19.6979 91.5498 19.6979H88.8289C88.2517 19.6979 87.8119 19.2309 87.8119 18.6815V14.176C87.8119 13.599 88.2792 13.1595 88.8289 13.1595H91.5498C92.1269 13.1595 92.5667 13.6265 92.5667 14.176V18.6815Z" fill="#FD0D1B"></path>
    <path d="M103.23 22.4177C102.186 18.9836 101.664 17.2529 100.619 13.8188C100.262 12.7749 99.6574 13.1045 99.6299 13.9012V22.4177H96.909V10.4397H102.241C103.313 13.8738 103.862 15.5771 104.962 19.0111C105.099 19.3683 105.814 19.7529 105.869 18.8738V10.4397H108.59V22.4177H103.23Z" fill="#FD0D1B"></path>
    <path d="M62.6639 12.5001C62.6639 11.3738 61.7295 10.4397 60.6026 10.4397H55.6005C54.4736 10.4397 53.5392 11.3463 53.5392 12.5001C53.5392 13.3793 53.5392 13.8463 53.5392 14.7254C53.5392 15.5496 53.7591 17.1979 56.1227 17.4452C57.5519 17.61 58.2939 17.6924 59.7231 17.8298C60.2178 17.8298 60.4102 18.3518 60.4102 19.2858C60.4102 19.7529 60.0529 20.11 59.5857 20.11H57.0846C56.6174 20.11 56.2601 19.7529 56.2601 19.2858V18.8463H53.5392V20.3573C53.5392 21.4836 54.4462 22.4177 55.6005 22.4177H61.0698C62.1967 22.4177 63.1312 21.5111 63.1312 20.3573V17.9672C63.1312 16.8408 62.4441 15.7144 60.7125 15.5221C59.3383 15.3573 58.6512 15.2749 57.277 15.1375C56.6999 15.11 56.2876 14.7804 56.2876 13.599C56.2876 13.132 56.6449 12.7749 57.1121 12.7749C57.9916 12.7749 58.4039 12.7749 59.2834 12.7749C59.7506 12.7749 60.1079 13.132 60.1079 13.599V13.9287H62.6914C62.6364 13.3518 62.6639 13.0771 62.6639 12.5001Z" fill="#FD0D1B"></path>
    <path d="M35.647 15.632V12.6375C35.647 11.4287 34.6576 10.4397 33.4483 10.4397H26.2474V22.4177H28.9684V19.4232H31.9367C32.5138 19.4232 32.9536 19.8902 32.9536 20.4397V22.4177C34.0255 22.4177 34.5751 22.4177 35.6745 22.3902V19.9727C35.6745 18.9012 34.905 17.9946 33.888 17.8023C33.8606 17.8023 33.8331 17.7749 33.8056 17.7749C34.85 17.6375 35.647 16.7309 35.647 15.632ZM32.9536 15.6869C32.9536 16.2639 32.4863 16.7034 31.9367 16.7034H28.9684V13.132H31.9367C32.5138 13.132 32.9536 13.599 32.9536 14.1485V15.6869Z" fill="#FD0D1B"></path>
    <path d="M83.6342 15.632V12.6375C83.6342 11.4287 82.6448 10.4397 81.4355 10.4397H74.2072V22.4177H76.9281V19.4232H79.8964C80.4735 19.4232 80.9133 19.8902 80.9133 20.4397V22.4177C81.9851 22.4177 82.5348 22.4177 83.6342 22.3902V19.9727C83.6342 18.9012 82.8646 17.9946 81.8477 17.8023C81.8202 17.8023 81.7928 17.7749 81.7653 17.7749C82.8372 17.6375 83.6342 16.7309 83.6342 15.632ZM80.9133 15.6869C80.9133 16.2639 80.446 16.7034 79.8964 16.7034H76.9281V13.132H79.8964C80.4735 13.132 80.9133 13.599 80.9133 14.1485V15.6869Z" fill="#FD0D1B"></path>
    <path d="M9.78434 24.368C7.778 24.368 8.21775 22.1977 8.9873 21.6482C8.9873 21.6482 8.9873 21.6482 9.01479 21.6482L11.7082 19.6153H21.7399V22.4449H24.5158C24.5158 17.1427 24.5158 11.8405 24.5158 6.53833C16.5454 12.4999 8.60252 18.4889 0.632123 24.4504C-0.109949 24.9724 -0.577179 27.1702 1.42916 27.1702H28.9408V24.368H9.78434ZM20.778 12.8021C20.8879 12.7196 21.7674 12.1153 21.7674 13.2966V16.8131H15.4461L20.778 12.8021Z" fill="#FD0D1B"></path>
  </g>
  <defs>
    <clipPath id="clip0">
      <rect width="156" height="35" fill="white"></rect>
    </clipPath>
  </defs>
</svg>
