<?xml version="1.0" encoding="UTF-8"?>
<!-- Generator: Adobe Illustrator 22.0.1, SVG Export Plug-In . SVG Version: 6.00 Build 0)  -->
<svg xmlns="http://www.w3.org/2000/svg" xmlns:xlink="http://www.w3.org/1999/xlink" id="Layer_1" x="0px" y="0px" viewBox="0 0 629 156" style="enable-background:new 0 0 629 156;" xml:space="preserve">
<style type="text/css">
	.st0{fill:#CD0500;}
</style>
<g>
	<path class="st0" d="M433.9,1.3c0,0-60.1,0-110.7,0c-51.8,0-104.6,0-116.9,0c-23.3,0-38.7,12.3-40.9,30.6   c-0.8,6.8-1.6,12.7-1.6,12.7h303.2c0,0,0.6-4.5,1-8.1C470.4,18.1,462.5,1.3,433.9,1.3z"></path>
	<path class="st0" d="M465,61.2c0,0-0.7,6.1-1.6,12.8c-1.8,13.2-11.7,23.1-30,23.1h-64.6l-7.3,58.7h-51.4l11.7-94.6L465,61.2   L465,61.2z"></path>
	<g>
		<polygon class="st0" points="21.3,1.3 158.9,1.3 153.5,44.7 16,44.7   "></polygon>
		<polygon class="st0" points="13.9,61.2 151.4,61.2 147,97 60.9,97 58.7,114.7 144.8,114.7 139.7,155.8 2.2,155.8   "></polygon>
	</g>
	<path class="st0" d="M482.9,1.3c0,0,84.7,0,112.1,0c17.7,0,36.2,8.2,32.5,36.7c-0.6,5.1-0.8,6.7-0.8,6.7H477.5L482.9,1.3z"></path>
	<polygon class="st0" points="475.4,61.2 526.9,61.2 515.1,155.7 463.7,155.8  "></polygon>
	<polygon class="st0" points="573.2,61.2 624.6,61.2 612.9,155.7 561.4,155.8  "></polygon>
	<path class="st0" d="M274.8,61.2c-8.9,0-95.4,0-112.9,0C158,85.9,170.4,97,187.9,97c9.5,0,69.6,0,69.6,0l-2.2,17.7H155.1l-5.1,41   c0,0,108.9,0,113.4,0c3.7-0.3,29.1-1,37.8-21.8c2.8-6.8,5.3-31,6-36.1C311.4,68.3,290.9,61.2,274.8,61.2z"></path>
</g>
</svg>
