<?xml version="1.0" encoding="UTF-8"?>
<svg xmlns="http://www.w3.org/2000/svg" width="190" height="230" viewBox="0 0 190 230" fill="none">
  <path d="M14.1239 133.841L20.8496 159.062C22.531 165.115 26.2301 180.92 27.2389 186.637H27.5752C26.9027 181.257 26.2301 159.398 26.2301 154.354V134.177H40.0177V229.009H25.2212L18.8319 205.469C17.1504 199.752 13.7876 184.283 12.7788 178.903C13.4513 183.947 13.7876 205.469 13.7876 210.177V229.009H0V133.841H14.1239Z" fill="black"></path>
  <path d="M61.876 147.292V173.522H72.9734V186.973H61.876V228.336H47.0796V133.841H77.0088V147.292H61.876Z" fill="black"></path>
  <path d="M111.31 228.336H81.3806V133.841H96.1771V214.885H111.31V228.336Z" fill="black"></path>
  <path d="M136.195 191.681H130.814V228.673H116.018V133.841H136.195C143.593 133.841 151.327 138.212 151.327 150.991V174.867C151.327 187.31 143.593 191.681 136.195 191.681ZM137.204 151.327C137.204 148.637 136.195 147.292 134.513 147.292H130.814V179.239H134.513C136.195 179.239 137.204 178.23 137.204 175.204V151.327Z" fill="black"></path>
  <path d="M165.451 212.195L163.77 228.336H150.655L163.434 133.504H177.221L190 228.336H174.867L173.522 212.195H165.451ZM172.177 198.743L169.823 172.513L166.796 198.743H172.177Z" fill="black"></path>
  <path d="M148 0H30V118H148V0Z" fill="#EC3029"></path>
  <path d="M138.469 38.2702L137.108 40.0926L135.292 38.7258C135.292 38.7258 131.662 35.9922 127.577 36.9034C126.216 37.359 125.308 37.8146 123.946 38.7258L136.2 46.9265L134.385 50.5713L121.677 41.9149C123.946 44.1929 129.846 49.6601 133.477 52.3937L131.208 56.0385C129.392 54.6717 127.577 53.3049 125.308 51.4825C122.585 53.3049 119.862 54.2161 119.408 54.2161L118.046 54.6717L117.139 53.3049C111.692 44.1929 114.869 30.9806 114.869 30.0694L118.5 31.4362C118.5 31.4362 117.592 35.081 117.592 39.637V40.0926C120.316 35.5366 123.492 33.2586 127.123 32.3474C130.754 31.4362 134.385 32.803 136.2 33.7142C138.016 31.4362 138.923 28.7026 138.923 26.4246C138.923 18.6794 132.569 12.7566 131.662 12.3011C127.123 9.11186 122.585 8.20067 118.046 9.11186C111.692 10.4787 107.154 15.9458 105.339 18.2238C111.239 28.247 112.6 36.4478 112.6 36.9034L108.516 37.8146C108.516 37.8146 107.154 29.1582 101.254 19.5906L100.346 18.2238L101.254 16.857C101.708 16.4014 107.608 6.83387 117.592 4.55588C123.039 3.18908 128.939 4.55588 134.839 8.20067C140.285 13.6678 148.454 26.4246 138.469 38.2702Z" fill="white"></path>
  <path d="M112.601 79.7298L113.962 74.7182C115.324 76.085 121.224 80.1854 122.585 82.0078L120.316 86.5637C119.862 85.6525 115.324 82.0078 112.601 79.7298Z" fill="white"></path>
  <path d="M113.962 104.788C112.146 106.154 107.608 107.066 96.2616 96.1313C84.9155 85.6525 75.8386 74.2625 74.9309 68.3398C73.5693 62.417 76.2924 52.8494 79.4693 46.471L83.554 48.2934C80.8309 53.305 79.4693 60.139 79.4693 64.695C79.4693 65.6062 79.4693 66.5174 79.9232 67.4286C80.8309 71.529 88.0924 81.5521 100.346 92.9421C108.515 100.232 111.692 101.143 112.6 101.143C125.308 87.9305 128.485 76.9961 128.485 69.251C128.485 61.5058 125.308 56.9498 124.854 56.4942L128.485 53.7606C127.577 54.6718 143.008 74.7181 113.962 104.788Z" fill="white"></path>
  <path d="M102.162 115.266C92.1772 98.8649 66.7618 88.3861 66.308 88.3861L68.1234 84.2857C69.4849 84.7413 97.6234 97.9537 108.062 115.266H102.162Z" fill="white"></path>
  <path d="M87.1852 57.8609C83.1006 52.3937 87.1852 48.749 87.1852 48.749C98.9852 48.2934 107.608 60.1389 107.608 60.1389C116.231 70.1621 109.878 80.1853 109.878 80.1853C109.878 80.1853 101.708 76.9961 95.3544 74.2625C89.0006 71.5289 88.0929 69.7065 88.5467 65.1505C89.0006 60.5945 87.1852 57.8609 87.1852 57.8609Z" fill="white"></path>
  <path d="M33.6313 18.6794L31.8159 15.0346C33.1775 14.579 67.2159 0.455453 89.4544 14.1234C100.347 20.9574 106.247 32.8029 107.608 50.1157L103.07 50.5713C102.162 35.0809 96.7159 24.1466 87.1852 18.2238C66.7621 5.01144 34.0851 18.6794 33.6313 18.6794Z" fill="white"></path>
  <path d="M63.585 48.749C59.5004 59.2278 55.4158 66.5174 50.8773 73.3513L47.2465 71.0733C51.3311 64.2394 55.8696 57.4054 59.5004 46.9266C60.4081 45.1042 61.3158 42.3706 59.9542 40.5482C59.0465 38.7258 56.3234 38.2702 56.3234 38.2702L59.0465 34.6255C59.0465 34.6255 61.7696 35.0811 64.0388 38.2702C65.4004 41.0038 65.4004 44.193 63.585 48.749Z" fill="white"></path>
  <path d="M53.1467 115.722C49.0621 113.444 43.6159 106.61 42.7082 105.699C33.6313 93.8532 41.3467 80.6408 45.8851 73.3513L49.5159 75.6292C44.9774 82.4632 38.6236 92.942 45.8851 102.51C48.1544 104.788 57.2313 113.444 59.9544 115.266L53.1467 115.722Z" fill="white"></path>
  <path d="M34.5385 43.7373L32.2693 40.0925C32.7232 39.6369 34.5385 37.8145 35.9001 35.9921C43.1616 28.7025 50.4232 33.7141 52.6924 30.0693C54.9616 26.4246 53.6001 19.135 52.2386 16.857L56.3232 15.4902C56.777 16.4014 60.4078 26.8802 55.8693 32.8029C53.6001 35.5365 49.9693 36.4477 45.4309 35.9921C45.4309 35.9921 42.2539 35.9921 39.077 38.7257C38.1693 39.6369 35.9001 42.8261 34.5385 43.7373Z" fill="white"></path>
  <path d="M118.047 44.6486C118.5 46.0154 118.954 48.2934 119.862 49.6602C120.316 49.2046 121.223 49.2046 122.131 48.749C120.316 47.3822 118.954 45.1042 118.047 44.6486Z" fill="#EE3124"></path>
</svg>
