<?xml version="1.0" encoding="UTF-8"?>
<!-- Generator: Adobe Illustrator 22.0.1, SVG Export Plug-In . SVG Version: 6.00 Build 0)  -->
<svg xmlns="http://www.w3.org/2000/svg" xmlns:xlink="http://www.w3.org/1999/xlink" id="Layer_1" x="0px" y="0px" viewBox="0 0 152 29.5" style="enable-background:new 0 0 152 29.5;" xml:space="preserve">
<style type="text/css">
	.st0{fill:#BE2526;}
</style>
<path class="st0" d="M4.5,13.5h1.6C10,13.5,12,12,12,9c0-2.9-2-4.4-6.1-4.4H4.5V13.5z M4.5,17.4v11.5H0.2V0.7h4.8  c2.4,0,4.2,0.2,5.4,0.5c1.2,0.3,2.3,0.9,3.2,1.9c1.6,1.6,2.4,3.6,2.4,6c0,2.6-0.9,4.6-2.6,6.1c-1.7,1.5-4.1,2.3-7,2.3H4.5z"></path>
<path class="st0" d="M21.8,14.7c0,3.1,1,5.7,3.1,7.7c2.1,2,4.5,3,7.2,3c3,0,5.5-1,7.5-3.1c2-2.1,3.1-4.6,3.1-7.6c0-3-1-5.5-3-7.6  c-2-2.1-4.5-3.1-7.4-3.1c-2.9,0-5.4,1-7.4,3.1C22.8,9.2,21.8,11.7,21.8,14.7 M17.5,14.7c0-4,1.5-7.4,4.4-10.3  c2.9-2.9,6.4-4.3,10.5-4.3c4,0,7.5,1.4,10.4,4.3c2.9,2.9,4.3,6.3,4.3,10.4c0,4.1-1.5,7.5-4.4,10.3c-2.9,2.8-6.4,4.3-10.6,4.3  c-3.6,0-6.9-1.3-9.8-3.8C19.1,22.9,17.5,19.2,17.5,14.7"></path>
<polygon class="st0" points="53.6,0.7 53.6,24.9 61.9,24.9 61.9,28.9 49.4,28.9 49.4,0.7 "></polygon>
<rect x="65" y="0.7" class="st0" width="4.3" height="28.3"></rect>
<polygon class="st0" points="83,4.7 83,28.9 78.7,28.9 78.7,4.7 72.3,4.7 72.3,0.7 89.5,0.7 89.5,4.7 "></polygon>
<rect x="92.5" y="0.7" class="st0" width="4.3" height="28.3"></rect>
<path class="st0" d="M121.7,2.2v5c-2.5-2.1-5-3.1-7.7-3.1c-2.9,0-5.3,1-7.3,3.1c-2,2.1-3,4.6-3,7.6c0,3,1,5.5,3,7.5  c2,2,4.5,3.1,7.4,3.1c1.5,0,2.8-0.2,3.8-0.7c0.6-0.2,1.2-0.6,1.8-1c0.6-0.4,1.3-0.9,2-1.5v5.2c-2.4,1.4-5,2.1-7.7,2.1  c-4,0-7.5-1.4-10.3-4.2c-2.8-2.8-4.3-6.3-4.3-10.3c0-3.6,1.2-6.8,3.6-9.6c2.9-3.4,6.7-5.2,11.4-5.2C116.9,0.1,119.3,0.8,121.7,2.2"></path>
<path class="st0" d="M126.6,14.7c0,3.1,1,5.7,3.1,7.7c2.1,2,4.5,3,7.2,3c3,0,5.5-1,7.5-3.1c2-2.1,3.1-4.6,3.1-7.6c0-3-1-5.5-3-7.6  c-2-2.1-4.5-3.1-7.4-3.1c-2.9,0-5.4,1-7.4,3.1C127.6,9.2,126.6,11.7,126.6,14.7 M122.3,14.7c0-4,1.5-7.4,4.4-10.3  c2.9-2.9,6.4-4.3,10.5-4.3c4,0,7.5,1.4,10.4,4.3c2.9,2.9,4.3,6.3,4.3,10.4c0,4.1-1.4,7.5-4.4,10.3c-2.9,2.8-6.4,4.3-10.6,4.3  c-3.6,0-6.9-1.3-9.8-3.8C123.9,22.9,122.3,19.2,122.3,14.7"></path>
</svg>
